<svg width="69" height="34" viewBox="0 0 69 34" fill="none" xmlns="http://www.w3.org/2000/svg">
<path d="M17.1569 0V7.5H15.1569V2H12.1569V9.5H10.1569V0H17.1569Z" fill="#F5F0E8"/>
<path d="M54.5512 33.36C52.8512 33.36 51.3312 33.1 49.9912 32.58C48.6512 32.06 47.5212 31.35 46.6012 30.45C45.6812 29.53 44.9812 28.48 44.5012 27.3C44.0212 26.12 43.7812 24.86 43.7812 23.52C43.7812 22.02 44.0612 20.69 44.6212 19.53C45.2012 18.35 46.0012 17.34 47.0212 16.5C48.0412 15.66 49.2312 15.02 50.5912 14.58C51.9712 14.14 53.4512 13.92 55.0312 13.92C56.1112 13.92 57.1112 14.02 58.0312 14.22C58.9712 14.42 59.7512 14.71 60.3712 15.09C60.5112 15.17 60.5912 15.24 60.6112 15.3C60.6512 15.36 60.6812 15.51 60.7012 15.75L61.0612 19.29C61.0612 19.35 61.0112 19.39 60.9112 19.41C60.8112 19.43 60.7412 19.4 60.7012 19.32C60.5012 18.6 60.2312 17.94 59.8912 17.34C59.5512 16.74 59.1312 16.23 58.6312 15.81C58.1312 15.37 57.5312 15.03 56.8312 14.79C56.1512 14.53 55.3612 14.4 54.4612 14.4C52.9012 14.4 51.4812 14.75 50.2012 15.45C48.9412 16.15 47.9412 17.15 47.2012 18.45C46.4612 19.75 46.0912 21.29 46.0912 23.07C46.0912 24.29 46.2812 25.49 46.6612 26.67C47.0412 27.83 47.6112 28.89 48.3712 29.85C49.1312 30.79 50.0912 31.54 51.2512 32.1C52.4112 32.64 53.7812 32.91 55.3612 32.91C56.3012 32.91 57.0512 32.79 57.6112 32.55C58.1912 32.31 58.6012 31.92 58.8412 31.38C59.1012 30.84 59.2312 30.13 59.2312 29.25C59.2312 28.29 59.1612 27.59 59.0212 27.15C58.9012 26.69 58.6012 26.39 58.1212 26.25C57.6612 26.11 56.8912 26.04 55.8112 26.04C55.6912 26.04 55.6312 25.96 55.6312 25.8C55.6312 25.64 55.6812 25.56 55.7812 25.56C57.0612 25.64 58.2212 25.69 59.2612 25.71C60.3012 25.71 61.3912 25.68 62.5312 25.62C62.6312 25.62 62.6812 25.69 62.6812 25.83C62.6812 25.97 62.6312 26.04 62.5312 26.04C62.0712 26.02 61.7312 26.09 61.5112 26.25C61.2912 26.39 61.1512 26.71 61.0912 27.21C61.0312 27.71 61.0012 28.49 61.0012 29.55C61.0012 30.21 61.0212 30.7 61.0612 31.02C61.1012 31.34 61.1312 31.58 61.1512 31.74C61.1912 31.88 61.2112 32.03 61.2112 32.19C61.2112 32.31 61.1912 32.39 61.1512 32.43C61.1112 32.47 61.0212 32.51 60.8812 32.55C59.8612 32.77 58.7912 32.96 57.6712 33.12C56.5712 33.28 55.5312 33.36 54.5512 33.36Z" fill="#C9A96E"/>
<path d="M21.8133 28.89C21.8133 27.97 22.0333 27.16 22.4733 26.46C22.9133 25.76 23.4733 25.12 24.1533 24.54C24.8533 23.96 25.5933 23.41 26.3733 22.89C27.1533 22.35 27.8833 21.79 28.5633 21.21C29.2633 20.63 29.8333 20.01 30.2733 19.35C30.7133 18.69 30.9333 17.93 30.9333 17.07C30.9333 16.17 30.6933 15.48 30.2133 15C29.7333 14.5 29.1033 14.25 28.3233 14.25C27.5633 14.25 26.9733 14.48 26.5533 14.94C26.1533 15.4 25.9533 16.13 25.9533 17.13C25.9533 18.17 26.1733 19.23 26.6133 20.31C27.0533 21.37 27.6633 22.42 28.4433 23.46C29.2233 24.5 30.1133 25.51 31.1133 26.49C32.1333 27.47 33.2033 28.38 34.3233 29.22C35.5833 30.16 36.7833 30.93 37.9233 31.53C39.0633 32.11 40.0233 32.48 40.8033 32.64C40.9033 32.66 40.9433 32.73 40.9233 32.85C40.9033 32.95 40.8633 33 40.8033 33C40.3633 33 39.8533 33 39.2733 33C38.6933 33 38.1233 33 37.5633 33C37.3033 33 36.9633 32.92 36.5433 32.76C36.1233 32.6 35.5833 32.32 34.9233 31.92C34.2833 31.5 33.4933 30.9 32.5533 30.12C31.5533 29.32 30.5733 28.45 29.6133 27.51C28.6533 26.57 27.7733 25.6 26.9733 24.6C26.1933 23.58 25.5633 22.59 25.0833 21.63C24.8233 21.05 24.6133 20.49 24.4533 19.95C24.2933 19.41 24.2133 18.89 24.2133 18.39C24.2133 17.51 24.4233 16.71 24.8433 15.99C25.2633 15.27 25.8433 14.7 26.5833 14.28C27.3233 13.84 28.1933 13.62 29.1933 13.62C29.7333 13.62 30.2733 13.71 30.8133 13.89C31.3533 14.05 31.8033 14.35 32.1633 14.79C32.5233 15.21 32.7033 15.81 32.7033 16.59C32.7033 17.45 32.4833 18.2 32.0433 18.84C31.6233 19.46 31.0633 20.04 30.3633 20.58C29.6833 21.1 28.9633 21.61 28.2033 22.11C27.4433 22.59 26.7233 23.11 26.0433 23.67C25.3633 24.21 24.8033 24.82 24.3633 25.5C23.9433 26.16 23.7333 26.94 23.7333 27.84C23.7333 28.68 23.9433 29.46 24.3633 30.18C24.8033 30.88 25.4033 31.44 26.1633 31.86C26.9233 32.26 27.7833 32.46 28.7433 32.46C29.6833 32.46 30.5533 32.26 31.3533 31.86C32.1533 31.44 32.8333 30.89 33.3933 30.21C33.9733 29.51 34.4133 28.72 34.7133 27.84C35.0333 26.94 35.1933 26.01 35.1933 25.05C35.1933 24.41 35.0633 23.89 34.8033 23.49C34.5633 23.09 33.9833 22.89 33.0633 22.89C33.0033 22.89 32.9633 22.83 32.9433 22.71C32.9433 22.59 32.9833 22.53 33.0633 22.53L39.3333 22.5C39.4133 22.5 39.4533 22.56 39.4533 22.68C39.4533 22.8 39.4133 22.86 39.3333 22.86C38.6333 22.86 38.1133 22.93 37.7733 23.07C37.4333 23.19 37.1933 23.38 37.0533 23.64C36.9133 23.9 36.7833 24.23 36.6633 24.63C36.4833 25.31 36.2333 26.05 35.9133 26.85C35.6133 27.63 35.2233 28.41 34.7433 29.19C34.2833 29.95 33.7133 30.65 33.0333 31.29C32.3533 31.91 31.5433 32.41 30.6033 32.79C29.6833 33.17 28.6133 33.36 27.3933 33.36C26.1133 33.36 25.0533 33.15 24.2133 32.73C23.3933 32.29 22.7833 31.73 22.3833 31.05C22.0033 30.35 21.8133 29.63 21.8133 28.89Z" fill="#C9A96E"/>
<path d="M8.00695 17.76C8.00695 18.58 8.20695 19.29 8.60695 19.89C9.02695 20.47 9.55695 20.98 10.1969 21.42C10.8369 21.86 11.5169 22.3 12.2369 22.74C12.9769 23.16 13.6869 23.61 14.3669 24.09C15.0669 24.57 15.6369 25.14 16.077 25.8C16.5369 26.46 16.7669 27.27 16.7669 28.23C16.7669 29.19 16.5269 30.06 16.0469 30.84C15.5669 31.6 14.8669 32.21 13.9469 32.67C13.0469 33.13 11.9269 33.36 10.5869 33.36C10.1069 33.36 9.62695 33.32 9.14695 33.24C8.68695 33.18 8.21695 33.07 7.73695 32.91C7.27695 32.75 6.81695 32.55 6.35695 32.31C6.25695 32.25 6.18695 32.18 6.14695 32.1C6.12695 32 6.10695 31.88 6.08695 31.74L5.69695 27.66C5.67695 27.56 5.71695 27.51 5.81695 27.51C5.93695 27.49 6.00695 27.52 6.02695 27.6C6.16695 28.2 6.36695 28.81 6.62695 29.43C6.88695 30.05 7.22695 30.62 7.64695 31.14C8.06695 31.66 8.57695 32.08 9.17695 32.4C9.77695 32.72 10.4769 32.88 11.2769 32.88C11.8569 32.88 12.4169 32.77 12.9569 32.55C13.5169 32.33 13.9669 31.97 14.3069 31.47C14.6669 30.97 14.8469 30.29 14.8469 29.43C14.8469 28.45 14.6269 27.64 14.1869 27C13.7669 26.34 13.2269 25.77 12.5669 25.29C11.9069 24.81 11.2069 24.36 10.4669 23.94C9.76695 23.5 9.08695 23.05 8.42695 22.59C7.78695 22.13 7.25695 21.59 6.83695 20.97C6.43695 20.33 6.23695 19.54 6.23695 18.6C6.23695 17.54 6.50695 16.67 7.04695 15.99C7.58695 15.29 8.28695 14.77 9.14695 14.43C10.0069 14.09 10.8969 13.92 11.8169 13.92C12.3769 13.92 12.9569 13.98 13.5569 14.1C14.1569 14.2 14.7469 14.38 15.3269 14.64C15.4869 14.7 15.5969 14.78 15.6569 14.88C15.7369 14.96 15.7769 15.05 15.7769 15.15L15.9869 18.57C15.9869 18.65 15.9369 18.7 15.8369 18.72C15.7369 18.72 15.6669 18.68 15.6269 18.6C15.5869 18.2 15.4769 17.76 15.2969 17.28C15.1169 16.78 14.8569 16.31 14.5169 15.87C14.1769 15.43 13.7469 15.07 13.2269 14.79C12.7069 14.51 12.0769 14.37 11.3369 14.37C10.5569 14.37 9.91695 14.54 9.41695 14.88C8.93695 15.2 8.57695 15.62 8.33695 16.14C8.11695 16.64 8.00695 17.18 8.00695 17.76Z" fill="#C9A96E"/>
<path d="M68.2897 13H65.088L34.1569 2.49495L3.22591 13L0 13L34.1569 0L68.2897 13Z" fill="#C9A96E"/>
</svg>
