<svg width="109" height="109" viewBox="0 0 109 109" fill="none" xmlns="http://www.w3.org/2000/svg">
<path d="M43.2102 91.9722C43.4394 92.0433 43.6032 92.1632 43.7016 92.332C43.7965 92.5122 43.8083 92.7169 43.7372 92.9461C43.6696 93.1639 43.5475 93.3145 43.3709 93.3978C43.1906 93.4927 42.9859 93.5046 42.7567 93.4334C42.516 93.3588 42.354 93.2331 42.2706 93.0564C42.1837 92.8912 42.174 92.6998 42.2415 92.482C42.3127 92.2528 42.4326 92.089 42.6014 91.9906C42.7665 91.9036 42.9695 91.8975 43.2102 91.9722Z" fill="#F5F0E8"/>
<path d="M49.513 93.2829C49.5487 93.2874 49.562 93.3254 49.5529 93.3968C49.5438 93.4683 49.5214 93.5017 49.4857 93.4972C49.0215 93.438 48.714 93.4775 48.5634 93.6156C48.3993 93.764 48.2854 94.0882 48.2217 94.5882L47.8533 97.4808C47.7623 98.1951 47.8273 98.7296 48.0483 99.0843C48.2677 99.451 48.6631 99.6707 49.2345 99.7435C49.6631 99.7981 50.1209 99.7173 50.6081 99.5011C51.0954 99.2849 51.53 98.9592 51.912 98.524L51.9562 98.7474C51.343 99.383 50.7592 99.8348 50.2049 100.103C49.6387 100.37 49.0877 100.469 48.552 100.401C47.8973 100.317 47.4149 100.068 47.1048 99.6537C46.7813 99.2496 46.6657 98.6844 46.7582 97.9583L47.204 94.4586C47.2676 93.9586 47.2446 93.617 47.1349 93.4336C47.0118 93.2607 46.7181 93.1447 46.2538 93.0855C46.2181 93.081 46.2048 93.043 46.2139 92.9716C46.223 92.9001 46.2454 92.8667 46.2811 92.8713C46.4835 92.897 46.7267 92.9341 47.0109 92.9824C47.2832 93.0291 47.5741 93.0722 47.8836 93.1116C48.1931 93.1511 48.4914 93.183 48.7786 93.2075C49.0659 93.232 49.3106 93.2571 49.513 93.2829ZM54.3162 93.8946C54.3519 93.8992 54.3652 93.9372 54.3561 94.0086C54.347 94.08 54.3246 94.1135 54.2889 94.1089C53.8247 94.0498 53.5172 94.0893 53.3666 94.2273C53.2025 94.3758 53.0886 94.7 53.0249 95.2L52.5746 98.7354C52.5246 99.1282 52.5358 99.42 52.6083 99.6107C52.6674 99.8117 52.816 99.9274 53.054 99.9578C53.1731 99.9729 53.319 99.9673 53.4917 99.9409C53.6525 99.913 53.8394 99.8703 54.0524 99.8127C54.1015 99.8069 54.1401 99.836 54.1683 99.9001C54.1845 99.9626 54.1673 100.003 54.1166 100.021L51.9203 100.739C51.8831 100.746 51.8466 100.748 51.8109 100.743C51.7276 100.732 51.6363 100.594 51.5372 100.327C51.4381 100.06 51.4189 99.689 51.4795 99.2129L52.0072 95.0703C52.0708 94.5704 52.0478 94.2287 51.9381 94.0454C51.815 93.8724 51.5213 93.7564 51.057 93.6973C51.0213 93.6927 51.008 93.6547 51.0171 93.5833C51.0262 93.5119 51.0486 93.4785 51.0843 93.483C51.2867 93.5088 51.5299 93.5458 51.8141 93.5941C52.0864 93.6409 52.3773 93.684 52.6868 93.7234C52.9963 93.7628 53.2946 93.7948 53.5818 93.8193C53.8691 93.8437 54.1138 93.8689 54.3162 93.8946Z" fill="#F5F0E8"/>
<path d="M60.5606 93.0856C61.2632 92.9984 61.898 93.0949 62.4648 93.3752C63.0317 93.6555 63.4935 94.0637 63.8503 94.5998C64.2085 95.1479 64.429 95.7553 64.5118 96.4222C64.5887 97.0414 64.5421 97.5914 64.3721 98.072C64.202 98.5526 63.9441 98.9595 63.5986 99.2926C63.2544 99.6376 62.871 99.909 62.4481 100.107C62.0133 100.306 61.5816 100.432 61.1528 100.485C60.4264 100.575 59.785 100.473 59.2286 100.18C58.6602 99.8876 58.2044 99.4787 57.861 98.953C57.5176 98.4273 57.3075 97.8548 57.2306 97.2356C57.1359 96.4734 57.2273 95.797 57.5046 95.2063C57.782 94.6157 58.188 94.136 58.7226 93.7673C59.2572 93.3986 59.8699 93.1714 60.5606 93.0856ZM60.0847 93.4893C59.4536 93.5677 58.9808 93.8501 58.6663 94.3366C58.3533 94.8349 58.2589 95.5843 58.3831 96.5846C58.4763 97.3348 58.6834 97.9802 59.0045 98.5208C59.3151 99.0747 59.7047 99.4859 60.1733 99.7542C60.6434 100.034 61.1524 100.14 61.7002 100.072C62.3313 99.9941 62.7967 99.7005 63.0963 99.1917C63.3959 98.6829 63.4917 97.9939 63.3838 97.1245C63.2936 96.3981 63.0917 95.746 62.7781 95.1683C62.4645 94.5905 62.0772 94.1489 61.616 93.8434C61.143 93.5393 60.6325 93.4213 60.0847 93.4893Z" fill="#F5F0E8"/>
<path d="M69.5022 91.2204C69.5249 91.2129 69.5476 91.2433 69.5703 91.3116C69.5929 91.38 69.5928 91.4179 69.5701 91.4255C69.1258 91.5726 68.8598 91.7428 68.7722 91.9362C68.6769 92.1447 68.7085 92.4882 68.8669 92.9667L69.9251 96.162C70.0572 96.5607 70.1932 96.838 70.3333 96.9938C70.4772 97.1611 70.6574 97.2089 70.8738 97.1372C70.9649 97.107 71.0656 97.0484 71.1758 96.9613C71.2898 96.8857 71.4191 96.7797 71.5635 96.6433C71.6053 96.6168 71.6527 96.6264 71.7058 96.6721C71.7512 96.7329 71.7606 96.7803 71.7339 96.8144L69.8521 98.5753C69.8217 98.598 69.8008 98.6113 69.7894 98.615C69.7666 98.6226 69.7325 98.6149 69.687 98.5921C69.6453 98.5806 69.6188 98.5578 69.6075 98.5236C69.5773 98.4325 69.5094 98.2085 69.4039 97.8515C69.2983 97.4946 69.155 97.0428 68.9739 96.496L67.91 93.2836C67.7516 92.8051 67.5833 92.5069 67.4052 92.3889C67.2194 92.2861 66.8987 92.3101 66.4431 92.461C66.4089 92.4724 66.3805 92.4438 66.3579 92.3755C66.3352 92.3071 66.341 92.2673 66.3752 92.256C66.5802 92.1881 66.8213 92.1146 67.0985 92.0354C67.3643 91.96 67.6453 91.8733 67.9414 91.7752C68.2376 91.6771 68.5205 91.5771 68.7901 91.4752C69.0484 91.377 69.2857 91.2921 69.5022 91.2204ZM70.9641 100.444C71.192 100.369 71.395 100.371 71.5732 100.451C71.7514 100.531 71.8782 100.685 71.9536 100.913C72.0291 101.141 72.0192 101.34 71.924 101.511C71.8288 101.681 71.6673 101.804 71.4395 101.88C71.2116 101.955 71.0143 101.951 70.8475 101.867C70.6807 101.783 70.5596 101.628 70.4841 101.4C70.3257 100.921 70.4857 100.603 70.9641 100.444Z" fill="#F5F0E8"/>
<path d="M73.6371 88.9675C73.8917 88.8328 74.1581 88.7461 74.4363 88.7075C74.709 88.6583 74.97 88.6899 75.2196 88.8022C75.4691 88.9146 75.6808 89.1352 75.8548 89.464L77.833 93.2029C77.9677 93.4574 78.0846 93.6399 78.1838 93.7504C78.283 93.8608 78.3993 93.9011 78.5328 93.8712C78.672 93.8519 78.8635 93.7777 79.1074 93.6486C79.1499 93.6262 79.1879 93.6468 79.2216 93.7104C79.2609 93.7847 79.2593 93.833 79.2169 93.8555C78.7982 94.0905 78.5152 94.3896 78.3679 94.7527C78.21 95.1213 78.2077 95.4891 78.3611 95.8559C78.3779 95.8878 78.3492 95.9233 78.275 95.9626C78.1901 96.0075 78.1393 96.014 78.1224 95.9822L75.2182 90.4932C74.9881 90.0583 74.7109 89.7909 74.3865 89.691C74.0515 89.5967 73.6825 89.6562 73.2794 89.8695C73.0037 90.0154 72.7821 90.1869 72.6149 90.384C72.4427 90.5973 72.3185 90.7988 72.2423 90.9884C72.2111 91.0321 72.1656 91.0358 72.1057 90.9996C72.0408 90.9796 72.0212 90.9425 72.0468 90.8882C72.2821 90.3836 72.5224 89.9781 72.7676 89.6719C73.0079 89.3819 73.2977 89.1471 73.6371 88.9675ZM75.0317 95.3367C75.5015 95.2239 75.9358 95.0824 76.3344 94.9122C76.7331 94.742 77.1499 94.5418 77.5848 94.3117L77.77 94.6617C77.3457 94.8862 76.9458 95.1182 76.5701 95.3577C76.1945 95.5971 75.7952 95.8559 75.3722 96.1341C75.3509 96.1453 75.3101 96.1194 75.2496 96.0564C75.1785 95.9989 75.1149 95.9172 75.0588 95.8111C75.0195 95.7369 74.9958 95.6408 74.9877 95.5229C74.969 95.4106 74.9837 95.3485 75.0317 95.3367Z" fill="#F5F0E8"/>
<path d="M79.9425 84.7009C80.5771 84.188 81.2044 83.9047 81.8245 83.8509C82.4521 83.8066 83.0336 83.9151 83.5691 84.1767C84.1027 84.4551 84.5468 84.8137 84.9013 85.2523C85.2785 85.7189 85.5255 86.2059 85.6424 86.7132C85.7499 87.228 85.7562 87.7321 85.6612 88.2255C85.5662 88.7189 85.3896 89.178 85.1312 89.6028C84.8728 90.0277 84.571 90.3797 84.2257 90.6588C83.955 90.8775 83.6682 91.0476 83.3652 91.1691C83.0604 91.3074 82.7759 91.3754 82.5116 91.373C82.2381 91.3781 82.0334 91.2967 81.8976 91.1287C81.7995 91.0073 81.7548 90.8661 81.7633 90.7049C81.7794 90.553 81.8668 90.4129 82.0255 90.2847C82.1748 90.164 82.3385 90.1088 82.5166 90.1192C82.6854 90.1371 82.8514 90.1803 83.0148 90.2488C83.2533 90.3338 83.484 90.3711 83.7069 90.3606C83.9299 90.3501 84.1814 90.2317 84.4614 90.0054C84.9933 89.5754 85.2342 89.0335 85.1841 88.3797C85.1415 87.7352 84.8524 87.0817 84.3168 86.4191C83.9321 85.9431 83.4945 85.5639 83.0039 85.2815C82.504 85.0067 81.9796 84.8828 81.4306 84.9099C80.8892 84.9464 80.3432 85.1871 79.7925 85.6322C79.5406 85.8358 79.3196 86.0684 79.1298 86.3299C78.94 86.5913 78.8094 86.8974 78.738 87.2483C78.7345 87.282 78.7036 87.2915 78.6454 87.2768C78.5779 87.2697 78.5459 87.2492 78.5495 87.2155C78.6423 86.6621 78.7955 86.1835 79.009 85.7795C79.23 85.3848 79.5412 85.0253 79.9425 84.7009Z" fill="#F5F0E8"/>
<path d="M87.2782 76.9089C87.6387 76.4443 88.0725 76.1886 88.5798 76.1417C89.0891 76.1116 89.6282 76.3173 90.1971 76.7587L92.3729 78.447C92.7426 78.7339 93.0338 78.9067 93.2465 78.9654C93.4613 79.0409 93.6312 78.9981 93.7563 78.8369C93.8592 78.7042 93.9369 78.5063 93.9892 78.2431C94.0092 78.1978 94.0586 78.183 94.1376 78.1987C94.2092 78.2239 94.235 78.2591 94.215 78.3044L93.7013 80.4347C93.696 80.461 93.686 80.4836 93.6713 80.5026C93.6493 80.531 93.613 80.5484 93.5625 80.5548C93.5141 80.578 93.4757 80.5786 93.4472 80.5565L90.0484 77.9192C89.489 77.4852 88.9947 77.2611 88.5652 77.2468C88.1453 77.2399 87.7808 77.4356 87.4719 77.8338C87.1923 78.194 87.0218 78.6389 86.9603 79.1684C86.8915 79.7073 86.9352 80.2577 87.0916 80.8195L86.88 80.7692C86.6591 79.8991 86.5814 79.1477 86.647 78.5151C86.7147 77.8993 86.9251 77.3639 87.2782 76.9089ZM90.523 84.3251L86.5412 81.2354C86.2188 80.9852 85.9571 80.8429 85.7561 80.8084C85.555 80.7739 85.3846 80.8467 85.2448 81.0269C85.1712 81.1217 85.1045 81.237 85.0447 81.3728C84.987 81.5255 84.9251 81.7129 84.8591 81.9351C84.8412 81.9972 84.7965 82.0156 84.7249 81.9905C84.6628 81.9727 84.637 81.9374 84.6475 81.8848L85.1564 79.614C85.1616 79.5877 85.1716 79.5651 85.1863 79.5461C85.2451 79.4703 85.4109 79.4622 85.6835 79.5219C85.9657 79.5889 86.2964 79.7695 86.6756 80.0638L89.4487 82.2156C89.8184 82.5025 90.1096 82.6753 90.3223 82.734C90.5371 82.8095 90.707 82.7667 90.8321 82.6055C90.9351 82.4728 91.0127 82.2748 91.065 82.0116C91.085 81.9664 91.1308 81.9563 91.2024 81.9815C91.2739 82.0067 91.2998 82.0419 91.2798 82.0872L90.766 84.2174C90.7608 84.2438 90.7545 84.2617 90.7471 84.2711C90.7251 84.2996 90.6888 84.317 90.6383 84.3234C90.5899 84.3466 90.5515 84.3471 90.523 84.3251Z" fill="#F5F0E8"/>
<path d="M95.9671 71.923L96.1769 71.9424C96.4758 72.5744 96.694 73.0821 96.8315 73.4654C96.9799 73.8539 97.0595 74.1634 97.0701 74.394C97.0864 74.6406 97.0536 74.8507 96.9717 75.0243C96.8642 75.2522 96.6941 75.444 96.4614 75.5996C96.2236 75.766 96.0125 75.8057 95.828 75.7187C95.6869 75.6521 95.5906 75.5469 95.539 75.4032C95.4823 75.2702 95.4949 75.117 95.5769 74.9433C95.6434 74.8023 95.7432 74.7034 95.8761 74.6467C96.009 74.5899 96.139 74.5253 96.2662 74.4526C96.3934 74.3799 96.498 74.2567 96.5799 74.0831C96.626 73.9854 96.6475 73.8695 96.6444 73.7354C96.6414 73.6013 96.5857 73.3959 96.4774 73.1192C96.38 72.8477 96.2099 72.4489 95.9671 71.923ZM92.3083 68.2461C92.3237 68.2135 92.3639 68.2126 92.429 68.2433C92.4941 68.274 92.519 68.3057 92.5037 68.3382C92.3039 68.7615 92.2465 69.0661 92.3312 69.252C92.4217 69.454 92.6948 69.6625 93.1506 69.8775L96.3738 71.3984C96.732 71.5674 97.0129 71.6469 97.2167 71.6369C97.4261 71.6429 97.5821 71.5373 97.6845 71.3203C97.7357 71.2118 97.7755 71.0713 97.8038 70.8989C97.8269 70.7373 97.844 70.5464 97.8551 70.326C97.8648 70.2775 97.9044 70.2498 97.974 70.2428C98.0385 70.2467 98.0714 70.2755 98.0726 70.3291L98.0769 72.6399C98.0724 72.6776 98.0624 72.7127 98.0471 72.7453C98.0112 72.8213 97.8512 72.8652 97.567 72.877C97.2827 72.8888 96.9236 72.7923 96.4895 72.5875L92.7128 70.8054C92.4089 70.662 92.1523 70.5874 91.9428 70.5814C91.7441 70.5806 91.5639 70.6813 91.4021 70.8836C91.2403 71.0859 91.0544 71.4095 90.8445 71.8545C90.824 71.8979 90.7812 71.9042 90.7161 71.8735C90.651 71.8428 90.6287 71.8057 90.6491 71.7623C90.772 71.5018 90.9234 71.1951 91.1033 70.8421C91.278 70.4999 91.4575 70.1335 91.6419 69.7428C91.775 69.4606 91.8976 69.1868 92.0096 68.9212C92.1217 68.6556 92.2213 68.4306 92.3083 68.2461Z" fill="#F5F0E8"/>
<path d="M93.3911 63.8122C93.4634 63.5334 93.5792 63.2783 93.7384 63.0468C93.886 62.8124 94.0854 62.641 94.3367 62.5326C94.588 62.4242 94.8936 62.4168 95.2537 62.5102L99.3482 63.5724C99.6269 63.6448 99.8405 63.6816 99.989 63.6829C100.137 63.6842 100.246 63.6255 100.314 63.5068C100.393 63.391 100.468 63.1996 100.537 62.9325C100.549 62.886 100.59 62.8718 100.66 62.8899C100.741 62.911 100.776 62.9448 100.763 62.9912C100.655 63.4589 100.684 63.8695 100.853 64.2232C101.019 64.5885 101.288 64.8382 101.663 64.9725C101.698 64.9816 101.704 65.0268 101.683 65.1081C101.659 65.201 101.63 65.2429 101.595 65.2339L95.5839 63.6744C95.1077 63.5509 94.7233 63.5751 94.4307 63.7471C94.1351 63.9308 93.9301 64.2433 93.8156 64.6847C93.7372 64.9867 93.7144 65.2659 93.747 65.5223C93.7883 65.7934 93.8532 66.021 93.9418 66.2051C93.953 66.2576 93.925 66.2938 93.8579 66.3135C93.7994 66.3479 93.7587 66.3374 93.7359 66.2819C93.5222 65.7677 93.385 65.3168 93.3244 64.9292C93.2724 64.5562 93.2947 64.1838 93.3911 63.8122ZM99.0333 67.0798C99.267 66.6569 99.4555 66.2409 99.5988 65.8318C99.7422 65.4227 99.8756 64.98 99.9992 64.5038L100.382 64.6032C100.262 65.0678 100.163 65.5195 100.087 65.9583C100.01 66.3972 99.9317 66.8665 99.8515 67.3664C99.8455 67.3896 99.7988 67.4023 99.7115 67.4045C99.6212 67.4182 99.5179 67.41 99.4017 67.3799C99.3204 67.3588 99.2335 67.3115 99.1411 67.2379C99.0456 67.1759 99.0096 67.1232 99.0333 67.0798Z" fill="#F5F0E8"/>
<path d="M100.685 55.6932C100.374 55.6698 100.105 55.7278 99.8775 55.8672C99.6495 56.0185 99.4488 56.208 99.2752 56.4356C99.1127 56.6761 98.9493 56.9285 98.785 57.193C98.6061 57.4924 98.4165 57.773 98.2163 58.0347C98.0281 58.2973 97.8015 58.5089 97.5368 58.6695C97.2839 58.831 96.9601 58.8969 96.5652 58.8672C96.1823 58.8384 95.8305 58.7157 95.5098 58.499C95.2012 58.2832 94.9595 57.9762 94.7849 57.578C94.6093 57.1918 94.5423 56.7234 94.5837 56.173C94.6062 55.8738 94.6697 55.5898 94.7741 55.3209C94.8666 55.051 95.0258 54.7742 95.2518 54.4903C95.2775 54.4682 95.3092 54.4465 95.3469 54.4253C95.3846 54.4041 95.4274 54.3953 95.4753 54.3989L96.878 54.4683C96.9139 54.471 96.9296 54.5022 96.9251 54.5621C96.9317 54.6348 96.9166 54.6757 96.8798 54.685C96.4621 54.798 96.1076 54.9518 95.8162 55.1465C95.5367 55.3421 95.3148 55.5721 95.1505 55.8365C94.9982 56.1019 94.9103 56.3901 94.8869 56.7012C94.8581 57.0841 94.9318 57.3845 95.108 57.6023C95.2832 57.8321 95.5568 57.955 95.9286 57.9709C96.2765 57.9851 96.5645 57.9165 96.7925 57.7651C97.0205 57.6138 97.2157 57.4179 97.3782 57.1774C97.5518 56.9498 97.7143 56.7093 97.8657 56.4559C98.0318 56.1676 98.203 55.8916 98.3792 55.6281C98.5666 55.3775 98.7926 55.1718 99.0574 55.0113C99.3213 54.8626 99.6567 54.8036 100.064 54.8342C100.53 54.8693 100.898 55.0173 101.167 55.2783C101.448 55.5401 101.641 55.8614 101.745 56.2423C101.86 56.624 101.903 57.0183 101.872 57.4252C101.855 57.6525 101.821 57.8726 101.768 58.0853C101.716 58.2979 101.628 58.5079 101.505 58.7152C101.461 58.8202 101.391 58.8691 101.295 58.8619C101.103 58.8475 100.9 58.8262 100.686 58.7981C100.483 58.7708 100.251 58.7473 99.9873 58.7275C99.9634 58.7257 99.9541 58.6889 99.9595 58.6171C99.9649 58.5453 99.9796 58.5103 100.004 58.5121C100.279 58.5328 100.531 58.4555 100.761 58.2802C100.991 58.105 101.176 57.8783 101.318 57.6001C101.471 57.3228 101.558 57.0405 101.58 56.7534C101.601 56.4662 101.542 56.221 101.401 56.0178C101.258 55.8266 101.02 55.7184 100.685 55.6932Z" fill="#F5F0E8"/>
<path d="M94.3196 48.811C94.3145 48.7754 94.3476 48.7524 94.4189 48.7422C94.4901 48.732 94.5283 48.7447 94.5334 48.7803C94.5999 49.2436 94.7197 49.5295 94.8928 49.638C95.0796 49.7567 95.4224 49.7803 95.9213 49.7087L98.8078 49.2947C99.5205 49.1925 100.018 48.9877 100.302 48.6804C100.597 48.3714 100.703 47.9318 100.622 47.3616C100.56 46.934 100.361 46.5141 100.023 46.1019C99.6848 45.6897 99.2553 45.3573 98.7341 45.1047L98.9377 45.0028C99.7135 45.4249 100.304 45.8675 100.71 46.3306C101.118 46.8055 101.36 47.3103 101.437 47.8448C101.53 48.4981 101.419 49.0294 101.101 49.4385C100.798 49.8579 100.284 50.1195 99.5592 50.2234L96.067 50.7243C95.5681 50.7959 95.2448 50.9089 95.0973 51.0634C94.9633 51.2281 94.9295 51.5421 94.996 52.0053C95.0011 52.041 94.968 52.0639 94.8967 52.0741C94.8255 52.0843 94.7873 52.0716 94.7822 52.036C94.7532 51.8341 94.7242 51.5897 94.6952 51.3029C94.6679 51.028 94.6321 50.7361 94.5878 50.4273C94.5435 50.1185 94.495 49.8224 94.4422 49.539C94.3894 49.2556 94.3486 49.0129 94.3196 48.811ZM93.6322 44.0181C93.6271 43.9824 93.6602 43.9595 93.7314 43.9493C93.8027 43.939 93.8409 43.9518 93.846 43.9874C93.9124 44.4507 94.0322 44.7365 94.2054 44.8451C94.3921 44.9637 94.735 44.9873 95.2339 44.9158L98.7618 44.4098C99.1537 44.3535 99.432 44.2651 99.5966 44.1446C99.7747 44.0341 99.8467 43.8602 99.8126 43.6226C99.7956 43.5038 99.7514 43.3647 99.68 43.2052C99.6104 43.0576 99.5195 42.8888 99.4074 42.6988C99.3887 42.653 99.4065 42.608 99.4608 42.5638C99.5167 42.5315 99.56 42.5375 99.5906 42.5816L100.867 44.5079C100.884 44.5418 100.895 44.5766 100.9 44.6122C100.912 44.6954 100.803 44.8202 100.572 44.9866C100.341 45.153 99.9884 45.2703 99.5132 45.3385L95.3795 45.9314C94.8806 46.0029 94.5574 46.116 94.4098 46.2705C94.2759 46.4352 94.2421 46.7491 94.3085 47.2124C94.3137 47.248 94.2806 47.271 94.2093 47.2812C94.138 47.2914 94.0998 47.2787 94.0947 47.2431C94.0658 47.0411 94.0368 46.7968 94.0078 46.51C93.9805 46.2351 93.9447 45.9432 93.9004 45.6344C93.8561 45.3255 93.8075 45.0294 93.7548 44.746C93.702 44.4626 93.6611 44.22 93.6322 44.0181Z" fill="#F5F0E8"/>
<path d="M91.1842 38.2196C90.9122 37.566 90.8354 36.9285 90.9538 36.3074C91.0722 35.6862 91.342 35.132 91.7631 34.6448C92.1953 34.1529 92.7216 33.7779 93.3421 33.5197C93.9182 33.28 94.4605 33.1777 94.9691 33.213C95.4777 33.2483 95.9387 33.3879 96.3522 33.6318C96.7767 33.871 97.1407 34.1679 97.4442 34.5225C97.7524 34.8882 97.9895 35.2704 98.1555 35.6693C98.4367 36.3451 98.5103 36.9904 98.3762 37.6051C98.2467 38.2309 97.9746 38.7795 97.56 39.251C97.1453 39.7226 96.6499 40.0782 96.0738 40.318C95.3648 40.613 94.6886 40.706 94.0453 40.5968C93.4019 40.4876 92.8311 40.2248 92.3328 39.8082C91.8345 39.3917 91.4517 38.8622 91.1842 38.2196ZM91.7006 38.5701C91.9449 39.1573 92.3435 39.5373 92.8964 39.7102C93.4603 39.8784 94.2076 39.7689 95.1382 39.3816C95.8362 39.0911 96.4027 38.7189 96.8376 38.2649C97.2883 37.8174 97.5802 37.332 97.7133 36.8086C97.8575 36.2807 97.8236 35.7619 97.6115 35.2523C97.3671 34.6651 96.9597 34.2952 96.3893 34.1427C95.8189 33.9902 95.1294 34.0822 94.3206 34.4188C93.6448 34.7 93.0705 35.069 92.5977 35.5257C92.1249 35.9825 91.803 36.4739 91.632 36.9999C91.4656 37.5371 91.4885 38.0605 91.7006 38.5701Z" fill="#F5F0E8"/>
<path d="M94.9173 22.4424C95.2356 22.8332 95.4974 23.1927 95.7026 23.5207C95.9155 23.8581 96.0861 24.1911 96.2146 24.5199C96.3523 24.841 96.4613 25.1933 96.5415 25.5768C96.5573 25.6723 96.555 25.736 96.5347 25.7681C96.5313 25.8018 96.4728 25.8726 96.3595 25.9804L94.835 27.5006C94.8164 27.5157 94.7788 27.5076 94.7223 27.4763C94.6751 27.4373 94.6626 27.3934 94.6846 27.3445C95.2826 26.5015 95.5838 25.6836 95.5881 24.8908C95.6 24.1073 95.2952 23.334 94.6739 22.5711C94.0297 21.7802 93.293 21.2272 92.4638 20.9121C91.6421 20.6063 90.7785 20.5435 89.873 20.7239C88.9751 20.9135 88.0981 21.3569 87.2421 22.0541C86.628 22.5542 86.1344 23.1264 85.7615 23.7706C85.4054 24.4166 85.1742 25.0923 85.0679 25.7979C84.971 26.496 85.0041 27.1732 85.1672 27.8296C85.338 28.4953 85.6431 29.098 86.0826 29.6377C86.7116 30.4099 87.4054 30.8818 88.164 31.0532C88.932 31.2171 89.7913 31.113 90.742 30.7411C90.7775 30.7277 90.8096 30.748 90.8381 30.8021C90.8743 30.8655 90.8831 30.9048 90.8645 30.92L89.2156 32.0308C89.0963 32.1124 89.0152 32.1553 88.9721 32.1594C88.929 32.1635 88.8662 32.1528 88.7835 32.1273C88.1475 31.8405 87.6133 31.5172 87.181 31.1574C86.7394 30.8052 86.2988 30.3592 85.8593 29.8195C85.056 28.8333 84.5345 27.8033 84.2946 26.7296C84.0715 25.6577 84.1262 24.6226 84.4586 23.6246C84.8079 22.6282 85.4384 21.7587 86.3503 21.0161C87.0202 20.4705 87.7273 20.1035 88.4716 19.9152C89.2251 19.7194 89.983 19.6902 90.7451 19.8279C91.5072 19.9655 92.2453 20.2543 92.9595 20.6941C93.6736 21.1339 94.3262 21.7167 94.9173 22.4424Z" fill="#F5F0E8"/>
<path d="M75.0321 14.0201L75.0624 13.8116C75.7091 13.5461 76.2275 13.3547 76.6175 13.2374C77.0132 13.1095 77.3265 13.0462 77.5573 13.0477C77.8044 13.0442 78.0125 13.0879 78.1816 13.1788C78.4036 13.2981 78.5862 13.478 78.7294 13.7185C78.8832 13.9646 78.9118 14.1775 78.8153 14.3572C78.7414 14.4946 78.6314 14.5853 78.4851 14.6293C78.3494 14.679 78.197 14.6584 78.0279 14.5675C77.8905 14.4937 77.7969 14.3889 77.7472 14.2532C77.6975 14.1175 77.6397 13.9843 77.5738 13.8535C77.5079 13.7227 77.3903 13.6118 77.2212 13.5209C77.1261 13.4698 77.0115 13.4423 76.8774 13.4383C76.7433 13.4344 76.5352 13.4792 76.2533 13.5729C75.977 13.656 75.5699 13.8051 75.0321 14.0201ZM71.169 17.4818C71.1373 17.4647 71.1385 17.4245 71.1726 17.3611C71.2067 17.2977 71.2396 17.2745 71.2713 17.2915C71.6835 17.5131 71.9847 17.5864 72.1748 17.5114C72.3812 17.4316 72.6037 17.1698 72.8423 16.7258L74.5295 13.5865C74.7169 13.2377 74.811 12.9613 74.8116 12.7573C74.8285 12.5484 74.7313 12.3871 74.5199 12.2735C74.4142 12.2167 74.276 12.1697 74.1053 12.1324C73.9451 12.1008 73.7553 12.0738 73.5359 12.0512C73.4879 12.039 73.4623 11.998 73.459 11.9281C73.4662 11.8639 73.4967 11.8326 73.5503 11.8342L75.8582 11.9506C75.8956 11.9571 75.9302 11.9688 75.9619 11.9859C76.0359 12.0256 76.0713 12.1877 76.0683 12.4722C76.0653 12.7567 75.9502 13.1103 75.7229 13.5331L73.746 17.2115C73.5869 17.5075 73.499 17.7599 73.4821 17.9688C73.4708 18.1671 73.562 18.3524 73.7556 18.5245C73.9491 18.6966 74.2626 18.8992 74.696 19.1321C74.7383 19.1548 74.7424 19.1979 74.7083 19.2613C74.6742 19.3247 74.636 19.3451 74.5937 19.3224C74.3401 19.186 74.0416 19.0188 73.6985 18.8208C73.366 18.6284 73.0094 18.43 72.6289 18.2255C72.3541 18.0778 72.087 17.9411 71.8276 17.8153C71.5682 17.6895 71.3487 17.5783 71.169 17.4818Z" fill="#F5F0E8"/>
<path d="M64.0057 15.4524C63.4393 15.2947 63.0383 14.99 62.8028 14.5383C62.5821 14.0782 62.5683 13.5014 62.7614 12.8078L63.4999 10.1547C63.6255 9.7038 63.6751 9.36884 63.6489 9.14979C63.6374 8.92239 63.5335 8.78134 63.3369 8.72663C63.1751 8.68157 62.9625 8.68467 62.6991 8.73591C62.6496 8.7346 62.6172 8.69443 62.6018 8.61541C62.598 8.53962 62.6208 8.50237 62.6703 8.50368L64.8365 8.17247C64.8628 8.16735 64.8875 8.16801 64.9107 8.17444C64.9453 8.1841 64.9752 8.21109 65.0002 8.25543C65.04 8.29142 65.0551 8.32676 65.0455 8.36144L63.8918 12.5059C63.7019 13.1879 63.6817 13.7304 63.8311 14.1332C63.9838 14.5245 64.3029 14.7877 64.7884 14.9229C65.2277 15.0451 65.704 15.0345 66.2173 14.8909C66.7422 14.7505 67.235 14.5016 67.6958 14.144L67.7294 14.3589C67.0077 14.8929 66.3417 15.2494 65.7314 15.4283C65.1359 15.5988 64.5606 15.6068 64.0057 15.4524ZM69.6407 9.64066L68.2891 14.496C68.1797 14.8891 68.1471 15.1852 68.1913 15.3843C68.2355 15.5835 68.3674 15.7136 68.5871 15.7748C68.7027 15.807 68.8347 15.825 68.9831 15.829C69.1462 15.8246 69.3431 15.8109 69.5737 15.7879C69.638 15.7808 69.672 15.8152 69.6758 15.891C69.6828 15.9553 69.66 15.9925 69.6073 16.0027L67.313 16.3917C67.2866 16.3968 67.2619 16.3962 67.2388 16.3897C67.1463 16.364 67.076 16.2136 67.028 15.9387C66.9832 15.6522 67.0252 15.2777 67.1539 14.8153L68.0952 11.4339C68.2207 10.983 68.2704 10.6481 68.2442 10.429C68.2327 10.2016 68.1287 10.0606 67.9322 10.0058C67.7704 9.96079 67.5577 9.96388 67.2944 10.0151C67.2449 10.0138 67.2183 9.97526 67.2144 9.89946C67.2106 9.82366 67.2335 9.78641 67.2829 9.78773L69.4491 9.45652C69.4754 9.45139 69.4944 9.45044 69.5059 9.45366C69.5406 9.46331 69.5705 9.49031 69.5955 9.53464C69.6353 9.57064 69.6504 9.60597 69.6407 9.64066Z" fill="#F5F0E8"/>
<path d="M52.7147 14.9644C51.8513 14.9975 51.0602 14.8777 50.3412 14.605C49.6338 14.3199 49.0179 13.9172 48.4936 13.3969C47.9813 12.8761 47.5739 12.2733 47.2714 11.5884C46.9805 10.891 46.8199 10.1466 46.7896 9.35517C46.7524 8.38388 46.9056 7.52539 47.2493 6.77968C47.605 6.03351 48.0854 5.40866 48.6906 4.90512C49.2953 4.38958 49.9648 3.99766 50.699 3.72935C51.4333 3.46104 52.1662 3.31287 52.8976 3.28484C53.785 3.25084 54.5826 3.38239 55.2905 3.67951C56.0099 3.96417 56.6258 4.36688 57.1381 4.88764C57.6504 5.40841 58.0456 6.00572 58.3236 6.67957C58.6136 7.35296 58.7724 8.04939 58.7999 8.76886C58.8321 9.60824 58.6941 10.3941 58.3859 11.1264C58.0777 11.8588 57.6402 12.506 57.0733 13.0681C56.5184 13.6298 55.8632 14.0812 55.1077 14.4224C54.3637 14.7511 53.5661 14.9318 52.7147 14.9644ZM53.3298 14.5626C54.1452 14.5313 54.8693 14.3114 55.5021 13.9029C56.1345 13.4824 56.628 12.887 56.9828 12.1169C57.3376 11.3467 57.4941 10.4161 57.4522 9.32487C57.409 8.1977 57.1611 7.21047 56.7083 6.36319C56.267 5.50345 55.6533 4.84247 54.867 4.38023C54.0923 3.90555 53.1893 3.68797 52.158 3.72748C50.827 3.77849 49.8063 4.24991 49.0959 5.14177C48.3971 6.02117 48.0759 7.19833 48.1325 8.67325C48.1651 9.52463 48.3096 10.3177 48.5659 11.0524C48.8337 11.7747 49.2003 12.4091 49.6656 12.9557C50.1304 13.4903 50.6745 13.9017 51.298 14.1901C51.9211 14.4664 52.5983 14.5906 53.3298 14.5626Z" fill="#F5F0E8"/>
<path d="M37.5767 16.66C37.9053 16.5128 38.2166 16.518 38.5107 16.6755C38.7999 16.8221 39.0549 17.1418 39.2756 17.6346C39.5013 18.1384 39.6027 18.6584 39.5799 19.1946C39.557 19.7307 39.4472 20.2927 39.2503 20.8806C39.2212 20.9331 39.1804 20.9448 39.1279 20.9157C39.0804 20.8975 39.0602 20.8671 39.0674 20.8245C39.1683 20.3453 39.186 19.9298 39.1204 19.5779C39.0548 19.2259 38.946 18.8802 38.7939 18.5407C38.6517 18.2231 38.4895 17.9933 38.3076 17.8513C38.1415 17.7153 37.9737 17.6195 37.8042 17.564L38.3769 17.1694C38.4712 17.3506 38.4857 17.5151 38.4204 17.6627C38.355 17.8103 38.2347 17.9234 38.0595 18.0019C37.8514 18.0951 37.6626 18.1139 37.4931 18.0583C37.3296 17.9869 37.2037 17.8527 37.1154 17.6555C37.0222 17.4474 37.0113 17.2617 37.0827 17.0982C37.1602 16.9189 37.3249 16.7728 37.5767 16.66Z" fill="#F5F0E8"/>
<path d="M32.5817 21.2791C32.5523 21.2998 32.5168 21.2807 32.4754 21.2218C32.434 21.1629 32.428 21.1231 32.4575 21.1024C32.8403 20.8331 33.0408 20.5968 33.059 20.3932C33.0801 20.173 32.9457 19.8567 32.6558 19.4445L30.9782 17.0593C30.564 16.4704 30.1557 16.1194 29.7533 16.0063C29.3441 15.8833 28.9039 15.9875 28.4328 16.3189C28.0794 16.5674 27.7957 16.9358 27.5815 17.4238C27.3673 17.9119 27.2657 18.4455 27.2769 19.0245L27.0937 18.8892C27.1183 18.0064 27.2449 17.2791 27.4737 16.7074C27.7123 16.1288 28.0524 15.6842 28.4941 15.3735C29.0339 14.9938 29.5581 14.8526 30.0665 14.9497C30.5779 15.0302 31.0442 15.3698 31.4653 15.9685L33.495 18.8542C33.7849 19.2664 34.0322 19.5033 34.2368 19.5648C34.4444 19.6095 34.7395 19.4973 35.1223 19.228C35.1518 19.2073 35.1872 19.2264 35.2286 19.2853C35.27 19.3442 35.276 19.384 35.2466 19.4047C35.0797 19.5221 34.8751 19.6587 34.6326 19.8146C34.3999 19.9635 34.156 20.1278 33.9008 20.3073C33.6456 20.4868 33.4037 20.6643 33.175 20.8398C32.9463 21.0153 32.7486 21.1617 32.5817 21.2791ZM28.6213 24.0647C28.5918 24.0854 28.5564 24.0663 28.515 24.0074C28.4735 23.9485 28.4675 23.9087 28.497 23.888C28.8798 23.6188 29.0803 23.3824 29.0985 23.1788C29.1197 22.9586 28.9852 22.6423 28.6953 22.2301L26.6449 19.3149C26.4171 18.991 26.2121 18.7831 26.0301 18.6911C25.8509 18.5824 25.6632 18.597 25.4669 18.7351C25.3687 18.8041 25.2647 18.9066 25.1549 19.0425C25.0549 19.1715 24.9457 19.3291 24.8272 19.5152C24.7948 19.5526 24.7466 19.5571 24.6827 19.5287C24.6285 19.4935 24.6142 19.4522 24.6396 19.405L25.7779 17.394C25.8005 17.3635 25.8265 17.3378 25.8559 17.3171C25.9246 17.2688 26.0855 17.3097 26.3384 17.4399C26.5913 17.5701 26.8559 17.8315 27.132 18.2241L29.5345 21.6398C29.8244 22.0521 30.0717 22.2889 30.2764 22.3504C30.4839 22.3951 30.779 22.2829 31.1618 22.0137C31.1913 21.993 31.2267 22.012 31.2681 22.0709C31.3096 22.1298 31.3156 22.1696 31.2861 22.1903C31.1192 22.3077 30.9146 22.4443 30.6721 22.6002C30.4395 22.7492 30.1955 22.9134 29.9403 23.0929C29.6851 23.2724 29.4432 23.4499 29.2145 23.6254C28.9859 23.8009 28.7881 23.9473 28.6213 24.0647Z" fill="#F5F0E8"/>
<path d="M24.5548 28.8717C24.0947 29.4098 23.5608 29.7664 22.9532 29.9416C22.3456 30.1167 21.7293 30.1266 21.1043 29.9711C20.4703 29.8079 19.8979 29.5079 19.3871 29.0712C18.9128 28.6657 18.5765 28.2281 18.3781 27.7585C18.1797 27.2889 18.0958 26.8145 18.1265 26.3355C18.148 25.8487 18.2483 25.3898 18.4274 24.9587C18.6143 24.5186 18.8481 24.1343 19.1289 23.806C19.6046 23.2496 20.1469 22.8923 20.7559 22.7341C21.3726 22.5668 21.985 22.5615 22.593 22.7182C23.2011 22.875 23.7422 23.1561 24.2165 23.5616C24.8002 24.0607 25.1888 24.6219 25.3821 25.2451C25.5755 25.8683 25.5991 26.4963 25.4528 27.1291C25.3064 27.7618 25.0071 28.3427 24.5548 28.8717ZM24.6341 28.2527C25.0474 27.7693 25.2062 27.242 25.1105 26.6707C25.0057 26.0916 24.5702 25.4745 23.8041 24.8195C23.2295 24.3282 22.6414 23.9911 22.0399 23.8083C21.437 23.6086 20.8721 23.5676 20.3451 23.6854C19.809 23.7954 19.3615 24.0602 19.0028 24.4797C18.5895 24.9631 18.4437 25.4937 18.5654 26.0714C18.6872 26.6492 19.081 27.2227 19.7468 27.792C20.3031 28.2677 20.8918 28.6132 21.513 28.8285C22.1341 29.0438 22.7179 29.1088 23.2645 29.0236C23.8188 28.9292 24.2754 28.6722 24.6341 28.2527Z" fill="#F5F0E8"/>
<path d="M19.2077 36.2767C19.1959 36.2976 19.1587 36.2905 19.0959 36.2553C19.0331 36.22 19.0076 36.1919 19.0193 36.171C19.2483 35.7629 19.33 35.4579 19.2644 35.2559C19.1943 35.0377 18.9394 34.8052 18.4999 34.5586L15.5644 32.9115C15.1981 32.706 14.9107 32.5929 14.7022 32.5722C14.4832 32.5456 14.3179 32.6317 14.2063 32.8306C14.1593 32.9143 14.1245 33.0254 14.1017 33.164C14.0685 33.2968 14.0445 33.4622 14.0297 33.6603C14.0167 33.708 13.9752 33.7329 13.9053 33.7349C13.8307 33.7206 13.7918 33.6919 13.7885 33.6488L13.9917 31.0796C13.9988 31.0423 14.0054 31.0184 14.0112 31.008C14.023 30.987 14.0533 30.9697 14.1024 30.9559C14.1409 30.9363 14.1759 30.9352 14.2073 30.9529C14.291 30.9998 14.4921 31.1196 14.8107 31.3121C15.1292 31.5046 15.5397 31.7417 16.042 32.0236L18.9931 33.6795C19.4327 33.9262 19.758 34.033 19.9691 34.0001C20.1756 33.9509 20.3963 33.717 20.6312 33.2983C20.6488 33.267 20.689 33.2689 20.7518 33.3041C20.8146 33.3393 20.8372 33.3726 20.8196 33.404C20.7139 33.5924 20.5853 33.8092 20.4339 34.0545C20.2884 34.2894 20.1393 34.5428 19.9866 34.8149C19.834 35.087 19.6924 35.3516 19.5619 35.6086C19.4373 35.8552 19.3192 36.0779 19.2077 36.2767ZM11.9104 30.4483C11.7929 30.6576 11.6414 30.7928 11.4558 30.8538C11.2702 30.9148 11.0728 30.8865 10.8635 30.7691C10.6542 30.6517 10.5272 30.4979 10.4826 30.3077C10.4379 30.1175 10.4743 29.9178 10.5917 29.7085C10.7092 29.4992 10.8578 29.3692 11.0375 29.3187C11.2172 29.2682 11.4117 29.3017 11.621 29.4191C12.0605 29.6657 12.157 30.0088 11.9104 30.4483Z" fill="#F5F0E8"/>
<path d="M11.4189 40.151C11.7123 40.2571 11.9871 40.2736 12.2432 40.2004C12.5035 40.1159 12.7478 39.9874 12.9762 39.8148C13.1973 39.6268 13.4226 39.4275 13.6519 39.217C13.9047 38.9767 14.1627 38.7574 14.4259 38.5591C14.6778 38.3567 14.9528 38.2138 15.251 38.1303C15.538 38.0427 15.8676 38.0662 16.24 38.201C16.6011 38.3316 16.9069 38.5444 17.1576 38.8393C17.3969 39.13 17.5472 39.4907 17.6083 39.9212C17.6736 40.3404 17.6123 40.8095 17.4245 41.3286C17.3224 41.6107 17.1849 41.8672 17.0121 42.0982C16.8504 42.3332 16.6227 42.5571 16.3288 42.7698C16.298 42.7842 16.2617 42.7965 16.2197 42.8069C16.1776 42.8172 16.1341 42.8142 16.0889 42.7978L14.7564 42.354C14.7226 42.3417 14.7159 42.3074 14.7363 42.251C14.7495 42.1792 14.7751 42.1438 14.813 42.1447C15.2457 42.1482 15.6285 42.0953 15.9615 41.9861C16.2833 41.8728 16.5588 41.7109 16.7881 41.5003C17.0061 41.2857 17.1682 41.0317 17.2744 40.7383C17.405 40.3772 17.4148 40.0681 17.3037 39.8109C17.1966 39.5425 16.9662 39.3506 16.6123 39.2354C16.2809 39.1282 15.9851 39.1169 15.7249 39.2014C15.4646 39.2859 15.2239 39.4221 15.0027 39.6101C14.7744 39.7827 14.5532 39.9706 14.3393 40.174C14.1018 40.4071 13.8628 40.6269 13.6222 40.8333C13.3744 41.0244 13.1014 41.1617 12.8031 41.2452C12.509 41.3175 12.1701 41.2842 11.7865 41.1454C11.3464 40.9861 11.0318 40.7447 10.8426 40.421C10.6422 40.0932 10.5432 39.732 10.5456 39.3373C10.5368 38.9385 10.6018 38.5473 10.7406 38.1636C10.8182 37.9492 10.9106 37.7466 11.018 37.5557C11.1253 37.3649 11.2665 37.1862 11.4416 37.0199C11.5122 36.9306 11.5926 36.9022 11.6829 36.9349C11.8634 37.0002 12.0532 37.0753 12.2522 37.1601C12.44 37.2408 12.658 37.326 12.9062 37.4158C12.9288 37.424 12.9278 37.4619 12.9033 37.5296C12.8788 37.5973 12.8553 37.6271 12.8327 37.6189C12.5732 37.525 12.3092 37.5316 12.0408 37.6387C11.7723 37.7457 11.5327 37.9142 11.3219 38.1442C11.0998 38.3701 10.9397 38.6185 10.8417 38.8893C10.7437 39.1601 10.7354 39.4123 10.8168 39.646C10.9022 39.8683 11.1029 40.0366 11.4189 40.151Z" fill="#F5F0E8"/>
<path d="M15.4007 48.794C15.3963 48.8176 15.3588 48.823 15.2879 48.81C15.2171 48.7971 15.1839 48.7788 15.1882 48.7552C15.2723 48.2948 15.2506 47.9798 15.1231 47.8101C14.9859 47.6264 14.6694 47.4892 14.1736 47.3986L10.8625 46.7933C10.4493 46.7178 10.1408 46.7041 9.93678 46.7522C9.72099 46.7981 9.5926 46.9332 9.5516 47.1575C9.53434 47.2519 9.53745 47.3684 9.56093 47.5069C9.5726 47.6432 9.60357 47.8074 9.65383 47.9996C9.657 48.049 9.62584 48.086 9.56035 48.1106C9.4852 48.1213 9.43907 48.1067 9.42193 48.067L8.78034 45.5709C8.77501 45.5334 8.77343 45.5087 8.77558 45.4969C8.7799 45.4733 8.803 45.447 8.84489 45.4181C8.87497 45.387 8.90772 45.3746 8.94313 45.3811C9.03757 45.3984 9.26667 45.4464 9.63045 45.5251C9.99423 45.6038 10.4594 45.6949 11.026 45.7985L14.3549 46.407C14.8506 46.4977 15.193 46.4932 15.382 46.3935C15.5614 46.2799 15.6942 45.9871 15.7805 45.5149C15.787 45.4795 15.8257 45.4682 15.8965 45.4812C15.9673 45.4941 15.9995 45.5183 15.993 45.5537C15.9542 45.7662 15.903 46.013 15.8394 46.2942C15.7779 46.5635 15.7192 46.8516 15.663 47.1585C15.6069 47.4655 15.5589 47.7616 15.5189 48.0471C15.4811 48.3208 15.4417 48.5697 15.4007 48.794ZM6.60681 45.6494C6.56365 45.8854 6.4642 46.0624 6.30845 46.1804C6.15271 46.2983 5.95679 46.3356 5.72071 46.2925C5.48462 46.2493 5.3146 46.1451 5.21065 45.9797C5.10669 45.8143 5.0763 45.6135 5.11946 45.3774C5.16262 45.1414 5.26099 44.9703 5.41457 44.8642C5.56816 44.758 5.763 44.7266 5.99908 44.7697C6.49487 44.8604 6.69744 45.1536 6.60681 45.6494Z" fill="#F5F0E8"/>
<path d="M4.01085 50.6507C4.00906 50.6148 4.04412 50.595 4.11603 50.5915C4.18794 50.5879 4.22479 50.6041 4.22658 50.64C4.24563 51.0236 4.36477 51.3661 4.584 51.6676C4.80263 51.9571 5.18697 52.1963 5.73702 52.3852L15.5094 55.7385C15.558 55.7481 15.5852 55.8129 15.5912 55.9327C15.5965 56.0406 15.5758 56.1077 15.5291 56.134L6.02543 61.0937C5.58011 61.32 5.26723 61.5518 5.08678 61.7891C4.89374 62.0149 4.80646 62.3136 4.82491 62.6852C4.8267 62.7211 4.79163 62.7409 4.71972 62.7445C4.64781 62.748 4.61096 62.7319 4.60918 62.6959C4.60084 62.5281 4.5988 62.366 4.60304 62.2096C4.60729 62.0532 4.61124 61.8908 4.61489 61.7224C4.60655 61.5546 4.59792 61.3808 4.58899 61.2011C4.57113 60.8415 4.55535 60.5239 4.54166 60.2482C4.51598 59.9732 4.49179 59.7281 4.46909 59.5129C4.44639 59.2978 4.43057 59.1003 4.42164 58.9206C4.41985 58.8846 4.45492 58.8648 4.52683 58.8613C4.59874 58.8577 4.63559 58.8739 4.63737 58.9098C4.66059 59.3773 4.76685 59.7024 4.95616 59.8852C5.14487 60.0561 5.45589 60.0286 5.88922 59.8028L14.1998 55.4972L15.0545 56.0134L5.6497 52.8041C5.19731 52.6463 4.86772 52.6627 4.66092 52.8532C4.45411 53.0437 4.36708 53.4685 4.39983 54.1277C4.40161 54.1637 4.36655 54.1835 4.29464 54.187C4.22273 54.1906 4.18588 54.1744 4.18409 54.1384C4.16921 53.8388 4.1672 53.5566 4.17808 53.2917C4.17696 53.0274 4.16569 52.6796 4.14426 52.2481C4.12699 51.9005 4.10731 51.6252 4.0852 51.422C4.05051 51.2075 4.02573 50.9504 4.01085 50.6507Z" fill="#F5F0E8"/>
<path d="M12.678 68.3848L12.5102 68.5122C11.863 68.2478 11.3593 68.0206 10.999 67.8307C10.6272 67.6443 10.3596 67.4697 10.196 67.3068C10.0175 67.1359 9.89986 66.9588 9.84306 66.7754C9.76852 66.5347 9.76452 66.2784 9.83108 66.0065C9.89409 65.7232 10.023 65.5514 10.2179 65.491C10.3669 65.4449 10.509 65.4574 10.6441 65.5287C10.7757 65.5884 10.8698 65.71 10.9266 65.8934C10.9728 66.0424 10.966 66.1827 10.9062 66.3143C10.8465 66.4458 10.7942 66.5814 10.7495 66.7208C10.7047 66.8603 10.7108 67.0218 10.7676 67.2052C10.7995 67.3083 10.8619 67.4084 10.9547 67.5052C11.0475 67.6021 11.2273 67.716 11.4939 67.847C11.7492 67.9815 12.1439 68.1608 12.678 68.3848ZM17.8595 68.6269C17.8702 68.6612 17.8411 68.6891 17.7723 68.7104C17.7036 68.7317 17.6639 68.7251 17.6532 68.6908C17.5148 68.2437 17.3515 67.9802 17.1634 67.9003C16.9604 67.8124 16.6181 67.843 16.1367 67.9921L12.7322 69.0464C12.3539 69.1635 12.093 69.2946 11.9494 69.4395C11.7909 69.5766 11.7471 69.7597 11.8181 69.989C11.8536 70.1036 11.9191 70.2341 12.0147 70.3804C12.1067 70.5152 12.223 70.6676 12.3635 70.8376C12.3892 70.8799 12.3787 70.9271 12.332 70.9793C12.2818 71.02 12.2382 71.0209 12.201 70.9822L10.6377 69.2805C10.6156 69.2496 10.5992 69.217 10.5885 69.1826C10.5637 69.1024 10.6521 68.9619 10.8538 68.7613C11.0554 68.5607 11.3855 68.3894 11.844 68.2474L15.8331 67.012C16.1541 66.9126 16.3939 66.7944 16.5524 66.6574C16.6995 66.5239 16.7645 66.3279 16.7472 66.0694C16.73 65.811 16.6486 65.4467 16.5031 64.9768C16.4889 64.9309 16.5162 64.8973 16.5849 64.876C16.6537 64.8547 16.6952 64.867 16.7094 64.9129C16.7946 65.188 16.89 65.5164 16.9957 65.8983C17.0978 66.2686 17.2128 66.6602 17.3406 67.0728C17.4329 67.3709 17.5274 67.6557 17.624 67.9272C17.7207 68.1988 17.7992 68.432 17.8595 68.6269Z" fill="#F5F0E8"/>
<path d="M21.5227 75.1078C21.8142 75.6185 21.8847 76.1171 21.7341 76.6038C21.5672 77.086 21.1711 77.5055 20.5458 77.8624L18.154 79.2277C17.7475 79.4597 17.4766 79.6627 17.341 79.8368C17.1891 80.0064 17.1637 80.1798 17.2649 80.357C17.3482 80.5029 17.5014 80.6503 17.7246 80.7993C17.7588 80.835 17.7536 80.8863 17.7089 80.9533C17.6583 81.0098 17.6158 81.0202 17.5816 80.9845L15.8095 79.6954C15.7872 79.6806 15.7701 79.6627 15.7582 79.6418C15.7403 79.6106 15.7381 79.5704 15.7515 79.5213C15.7486 79.4677 15.7628 79.432 15.794 79.4141L19.5302 77.2815C20.1451 76.9305 20.5412 76.5593 20.7185 76.1679C20.8853 75.7825 20.8439 75.371 20.594 74.9332C20.368 74.5372 20.0221 74.2096 19.5563 73.9504C19.0846 73.6808 18.5593 73.5109 17.9803 73.4406L18.1076 73.2643C18.9962 73.3927 19.7202 73.6082 20.2797 73.9106C20.8228 74.2085 21.2372 74.6076 21.5227 75.1078ZM13.4294 75.2715L17.8065 72.773C18.1608 72.5707 18.3923 72.3833 18.5011 72.2107C18.6098 72.0381 18.6077 71.8528 18.4946 71.6548C18.4351 71.5506 18.3541 71.4448 18.2514 71.3376C18.1324 71.2259 17.9829 71.0971 17.8028 70.9512C17.7523 70.911 17.7523 70.8626 17.8029 70.8061C17.8431 70.7555 17.8855 70.7451 17.9302 70.7749L19.834 72.1131C19.8563 72.128 19.8734 72.1459 19.8853 72.1667C19.9329 72.2501 19.877 72.4063 19.7177 72.6355C19.5479 72.8706 19.2545 73.1071 18.8377 73.345L15.7893 75.0851C15.3829 75.3171 15.1119 75.5201 14.9764 75.6942C14.8245 75.8638 14.7991 76.0372 14.9002 76.2144C14.9835 76.3603 15.1367 76.5077 15.3599 76.6566C15.3942 76.6924 15.3859 76.7385 15.3353 76.795C15.2847 76.8516 15.2423 76.862 15.208 76.8262L13.4359 75.5372C13.4136 75.5223 13.3995 75.5096 13.3935 75.4992C13.3757 75.468 13.3735 75.4278 13.3869 75.3787C13.3839 75.3251 13.3981 75.2894 13.4294 75.2715Z" fill="#F5F0E8"/>
<path d="M27.0161 81.8272C27.5077 82.3367 27.8115 82.9023 27.9277 83.5239C28.0439 84.1455 27.9947 84.7599 27.7802 85.3671C27.557 85.9826 27.2036 86.5237 26.72 86.9903C26.271 87.4236 25.8032 87.7165 25.3167 87.869C24.8303 88.0216 24.3501 88.0597 23.8762 87.9833C23.3937 87.9152 22.9465 87.7715 22.5346 87.5519C22.1143 87.3238 21.7542 87.0542 21.4542 86.7433C20.946 86.2166 20.6422 85.6425 20.543 85.0212C20.4355 84.3913 20.4888 83.7812 20.7031 83.191C20.9173 82.6007 21.249 82.089 21.698 81.6557C22.2507 81.1225 22.8465 80.7894 23.4853 80.6566C24.1242 80.5237 24.7516 80.5604 25.3674 80.7666C25.9832 80.9728 26.5328 81.3264 27.0161 81.8272ZM26.4075 81.689C25.9659 81.2313 25.4562 81.0228 24.8784 81.0634C24.2919 81.1123 23.636 81.4867 22.9106 82.1866C22.3665 82.7115 21.9747 83.2646 21.7352 83.8459C21.4787 84.4269 21.3838 84.9853 21.4506 85.5212C21.5088 86.0654 21.7295 86.5361 22.1128 86.9333C22.5544 87.391 23.0686 87.5869 23.6553 87.5211C24.2421 87.4552 24.8507 87.1181 25.4811 86.5099C26.0079 86.0016 26.4081 85.4486 26.6819 84.851C26.9557 84.2533 27.0763 83.6784 27.0437 83.1262C27.0029 82.5653 26.7908 82.0863 26.4075 81.689Z" fill="#F5F0E8"/>
<path d="M30.9481 91.8645L26.4602 93.9353C25.8656 94.228 25.5324 94.5218 25.4606 94.8167C25.3887 95.1117 25.5815 95.4027 26.0389 95.6898C26.0592 95.7026 26.0502 95.7395 26.0119 95.8004C25.9736 95.8614 25.9443 95.8855 25.924 95.8728C25.6496 95.7005 25.3917 95.5245 25.1504 95.3446C24.9027 95.175 24.5756 94.9625 24.1691 94.7073C23.915 94.5478 23.7085 94.4253 23.5497 94.3397C23.3743 94.258 23.1748 94.1469 22.9512 94.0066C22.9309 93.9938 22.9399 93.9569 22.9782 93.896C23.0165 93.835 23.0458 93.8109 23.0661 93.8236C23.31 93.9767 23.5973 94.0721 23.9279 94.1096C24.2586 94.1472 24.611 94.1275 24.9851 94.0507C25.349 93.9674 25.7315 93.8321 26.1326 93.6446L30.8325 91.4731L30.9481 91.8645ZM31.2689 91.7258L31.4865 97.4732C31.4967 98.0888 31.5746 98.5628 31.7203 98.8951C31.8659 99.2274 32.1064 99.4988 32.4418 99.7093C32.4723 99.7285 32.4684 99.7685 32.4301 99.8295C32.3918 99.8905 32.3574 99.9114 32.3269 99.8923C32.1541 99.7838 31.9776 99.6588 31.7972 99.5173C31.6105 99.3859 31.4359 99.2691 31.2732 99.167C30.9988 98.9948 30.7346 98.8289 30.4805 98.6694C30.2099 98.5137 29.9596 98.3707 29.7296 98.2405C29.4895 98.1039 29.283 97.9814 29.1102 97.8729C29.0899 97.8602 29.0989 97.8233 29.1372 97.7623C29.1754 97.7014 29.2047 97.6772 29.2251 97.69C29.6214 97.9388 29.9055 98.0392 30.0773 97.9912C30.239 97.9369 30.3119 97.7418 30.296 97.4059L30.0913 91.9429L31.2689 91.7258ZM31.1187 92.4391L30.0416 91.9543L32.3193 88.326C32.5044 88.0312 32.6142 87.7885 32.649 87.5978C32.6837 87.407 32.6255 87.2288 32.4745 87.0632C32.3234 86.8975 32.0599 86.6966 31.6839 86.4606C31.6534 86.4414 31.6573 86.4014 31.6955 86.3404C31.7338 86.2794 31.7682 86.2585 31.7987 86.2776C32.0426 86.4308 32.3138 86.6081 32.6124 86.8097C32.9007 87.0049 33.2228 87.2141 33.5785 87.4374C33.9139 87.648 34.2423 87.847 34.5637 88.0347C34.8852 88.2223 35.1628 88.3895 35.3965 88.5362C35.427 88.5554 35.4231 88.5954 35.3848 88.6564C35.3466 88.7174 35.3122 88.7383 35.2817 88.7192C34.9158 88.4895 34.6204 88.3394 34.3954 88.269C34.1704 88.1986 33.9795 88.2205 33.8228 88.3347C33.6661 88.4488 33.4953 88.6533 33.3103 88.948L31.1187 92.4391Z" fill="#F5F0E8"/>
<circle cx="54.5" cy="54.5" r="54" stroke="#C9A96E"/>
<path d="M40.0743 38V44.5198H38.317V39.7386H35.6812V46.2584H33.924V38H40.0743Z" fill="#F5F0E8"/>
<path d="M72.9292 67C71.4356 67 70.1001 66.774 68.9228 66.3219C67.7454 65.8699 66.7526 65.2527 65.9443 64.4703C65.136 63.6706 64.5209 62.7578 64.0992 61.732C63.6775 60.7062 63.4666 59.6109 63.4666 58.446C63.4666 57.1421 63.7126 55.9859 64.2046 54.9775C64.7142 53.9517 65.4171 53.0737 66.3133 52.3435C67.2095 51.6133 68.255 51.057 69.4499 50.6745C70.6624 50.292 71.9628 50.1007 73.351 50.1007C74.2999 50.1007 75.1785 50.1876 75.9868 50.3615C76.8127 50.5354 77.498 50.7875 78.0427 51.1178C78.1657 51.1873 78.236 51.2482 78.2536 51.3004C78.2887 51.3525 78.3151 51.4829 78.3327 51.6915L78.649 54.7689C78.649 54.821 78.605 54.8558 78.5172 54.8732C78.4293 54.8906 78.3678 54.8645 78.3327 54.795C78.157 54.1691 77.9197 53.5953 77.621 53.0737C77.3223 52.5522 76.9533 52.1088 76.514 51.7437C76.0747 51.3612 75.5475 51.0656 74.9325 50.857C74.335 50.631 73.6409 50.518 72.8502 50.518C71.4795 50.518 70.2319 50.8222 69.1073 51.4308C68.0002 52.0393 67.1216 52.9086 66.4715 54.0387C65.8213 55.1688 65.4962 56.5075 65.4962 58.0549C65.4962 59.1154 65.6631 60.1586 65.997 61.1844C66.3309 62.1927 66.8317 63.1142 67.4994 63.9487C68.1672 64.7659 69.0106 65.4179 70.0298 65.9047C71.049 66.3741 72.2527 66.6088 73.6409 66.6088C74.4668 66.6088 75.1258 66.5045 75.6178 66.2959C76.1274 66.0872 76.4876 65.7482 76.6985 65.2788C76.9269 64.8093 77.0411 64.1921 77.0411 63.4272C77.0411 62.5926 76.9796 61.9841 76.8566 61.6016C76.7512 61.2017 76.4876 60.9409 76.0659 60.8192C75.6617 60.6975 74.9852 60.6367 74.0363 60.6367C73.9308 60.6367 73.8781 60.5671 73.8781 60.4281C73.8781 60.289 73.9221 60.2194 74.0099 60.2194C75.1345 60.289 76.1537 60.3324 77.0675 60.3498C77.9812 60.3498 78.9389 60.3237 79.9405 60.2716C80.0284 60.2716 80.0723 60.3324 80.0723 60.4541C80.0723 60.5758 80.0284 60.6367 79.9405 60.6367C79.5364 60.6193 79.2376 60.6802 79.0444 60.8192C78.8511 60.9409 78.7281 61.2191 78.6753 61.6538C78.6226 62.0884 78.5963 62.7665 78.5963 63.6879C78.5963 64.2617 78.6138 64.6877 78.649 64.9658C78.6841 65.244 78.7105 65.4526 78.7281 65.5917C78.7632 65.7134 78.7808 65.8438 78.7808 65.9829C78.7808 66.0872 78.7632 66.1568 78.7281 66.1915C78.6929 66.2263 78.6138 66.2611 78.4908 66.2959C77.5946 66.4871 76.6545 66.6523 75.6705 66.7914C74.704 66.9305 73.7903 67 72.9292 67Z" fill="#C9A96E"/>
<path d="M44.1653 63.1142C44.1653 62.3144 44.3586 61.6103 44.7452 61.0018C45.1318 60.3933 45.6238 59.8369 46.2213 59.3327C46.8363 58.8285 47.4865 58.3504 48.1718 57.8984C48.8571 57.429 49.4985 56.9421 50.096 56.4379C50.711 55.9337 51.2118 55.3948 51.5984 54.821C51.985 54.2473 52.1783 53.5866 52.1783 52.839C52.1783 52.0567 51.9674 51.4568 51.5457 51.0396C51.1239 50.6049 50.5704 50.3876 49.8851 50.3876C49.2173 50.3876 48.699 50.5875 48.33 50.9874C47.9785 51.3873 47.8028 52.0219 47.8028 52.8912C47.8028 53.7953 47.9961 54.7167 48.3827 55.6556C48.7693 56.577 49.3052 57.4898 49.9905 58.3939C50.6758 59.298 51.4578 60.176 52.3364 61.0279C53.2326 61.8798 54.1727 62.6709 55.1567 63.4011C56.2638 64.2182 57.3181 64.8876 58.3197 65.4092C59.3214 65.9134 60.1648 66.235 60.8501 66.3741C60.938 66.3915 60.9731 66.4523 60.9556 66.5567C60.938 66.6436 60.9028 66.687 60.8501 66.687C60.4635 66.687 60.0155 66.687 59.5059 66.687C58.9963 66.687 58.4955 66.687 58.0034 66.687C57.775 66.687 57.4763 66.6175 57.1073 66.4784C56.7382 66.3393 56.2638 66.0959 55.6839 65.7482C55.1216 65.3831 54.4275 64.8615 53.6016 64.1835C52.723 63.488 51.862 62.7317 51.0185 61.9146C50.175 61.0974 49.4019 60.2542 48.699 59.3849C48.0137 58.4982 47.4601 57.6376 47.0384 56.8031C46.81 56.2989 46.6254 55.812 46.4849 55.3426C46.3443 54.8732 46.274 54.4212 46.274 53.9865C46.274 53.2215 46.4585 52.5261 46.8275 51.9002C47.1965 51.2743 47.7061 50.7788 48.3563 50.4137C49.0065 50.0312 49.7709 49.8399 50.6495 49.8399C51.1239 49.8399 51.5984 49.9182 52.0728 50.0746C52.5473 50.2137 52.9427 50.4745 53.2589 50.857C53.5752 51.2221 53.7334 51.7437 53.7334 52.4218C53.7334 53.1694 53.5401 53.8213 53.1535 54.3777C52.7845 54.9167 52.2925 55.4209 51.6775 55.8903C51.08 56.3423 50.4474 56.7857 49.7797 57.2203C49.1119 57.6376 48.4793 58.0896 47.8819 58.5764C47.2844 59.0459 46.7924 59.5761 46.4058 60.1673C46.0368 60.741 45.8523 61.4191 45.8523 62.2014C45.8523 62.9317 46.0368 63.6097 46.4058 64.2356C46.7924 64.8441 47.3196 65.3309 47.9873 65.696C48.655 66.0438 49.4106 66.2176 50.2541 66.2176C51.08 66.2176 51.8444 66.0438 52.5473 65.696C53.2502 65.3309 53.8476 64.8528 54.3396 64.2617C54.8492 63.6532 55.2358 62.9664 55.4994 62.2014C55.7806 61.4191 55.9211 60.6106 55.9211 59.7761C55.9211 59.2197 55.8069 58.7677 55.5785 58.42C55.3676 58.0722 54.858 57.8984 54.0497 57.8984C53.997 57.8984 53.9618 57.8462 53.9443 57.7419C53.9443 57.6376 53.9794 57.5854 54.0497 57.5854L59.5586 57.5593C59.6289 57.5593 59.664 57.6115 59.664 57.7158C59.664 57.8201 59.6289 57.8723 59.5586 57.8723C58.9436 57.8723 58.4867 57.9331 58.188 58.0549C57.8892 58.1592 57.6784 58.3243 57.5553 58.5504C57.4323 58.7764 57.3181 59.0632 57.2127 59.411C57.0545 60.0021 56.8349 60.6454 56.5537 61.3408C56.2902 62.0189 55.9475 62.6969 55.5258 63.375C55.1216 64.0357 54.6208 64.6442 54.0233 65.2005C53.4259 65.7395 52.7142 66.1742 51.8883 66.5045C51.08 66.8348 50.1399 67 49.068 67C47.9434 67 47.012 66.8174 46.274 66.4523C45.5535 66.0698 45.0176 65.583 44.6662 64.9919C44.3323 64.3834 44.1653 63.7575 44.1653 63.1142Z" fill="#C9A96E"/>
<path d="M32.035 53.4388C32.035 54.1517 32.2107 54.7689 32.5621 55.2905C32.9312 55.7947 33.3968 56.238 33.9591 56.6205C34.5214 57.003 35.1189 57.3855 35.7515 57.768C36.4017 58.1331 37.0255 58.5243 37.6229 58.9415C38.238 59.3588 38.7388 59.8543 39.1254 60.4281C39.5295 61.0018 39.7316 61.7059 39.7316 62.5405C39.7316 63.375 39.5207 64.1313 39.099 64.8094C38.6773 65.47 38.0622 66.0003 37.2539 66.4002C36.4632 66.8001 35.4791 67 34.3018 67C33.8801 67 33.4583 66.9652 33.0366 66.8957C32.6324 66.8435 32.2195 66.7479 31.7978 66.6088C31.3936 66.4697 30.9894 66.2959 30.5853 66.0872C30.4974 66.0351 30.4359 65.9742 30.4008 65.9047C30.3832 65.8177 30.3656 65.7134 30.348 65.5917L30.0054 62.045C29.9878 61.958 30.023 61.9146 30.1108 61.9146C30.2163 61.8972 30.2778 61.9233 30.2953 61.9928C30.4183 62.5144 30.5941 63.0447 30.8225 63.5836C31.0509 64.1226 31.3497 64.6181 31.7187 65.0701C32.0877 65.5222 32.5358 65.8873 33.063 66.1655C33.5901 66.4436 34.2051 66.5827 34.908 66.5827C35.4176 66.5827 35.9096 66.4871 36.3841 66.2959C36.8761 66.1046 37.2715 65.7917 37.5702 65.357C37.8865 64.9224 38.0447 64.3312 38.0447 63.5836C38.0447 62.7317 37.8514 62.0276 37.4648 61.4712C37.0958 60.8975 36.6213 60.402 36.0414 59.9847C35.4616 59.5674 34.8465 59.1763 34.1964 58.8111C33.5813 58.4287 32.9839 58.0375 32.404 57.6376C31.8417 57.2377 31.376 56.7683 31.007 56.2293C30.6556 55.673 30.4798 54.9862 30.4798 54.1691C30.4798 53.2476 30.7171 52.4913 31.1915 51.9002C31.666 51.2917 32.281 50.8396 33.0366 50.5441C33.7922 50.2485 34.5742 50.1007 35.3825 50.1007C35.8745 50.1007 36.3841 50.1529 36.9113 50.2572C37.4384 50.3441 37.9568 50.5006 38.4664 50.7266C38.607 50.7788 38.7036 50.8483 38.7563 50.9353C38.8266 51.0048 38.8618 51.083 38.8618 51.17L39.0463 54.143C39.0463 54.2125 39.0024 54.256 38.9145 54.2734C38.8266 54.2734 38.7651 54.2386 38.73 54.1691C38.6948 53.8213 38.5982 53.4388 38.44 53.0216C38.2819 52.5869 38.0535 52.1784 37.7547 51.7959C37.456 51.4134 37.0782 51.1004 36.6213 50.857C36.1644 50.6136 35.6109 50.4919 34.9607 50.4919C34.2754 50.4919 33.7131 50.6397 33.2738 50.9353C32.8521 51.2134 32.5358 51.5785 32.3249 52.0306C32.1316 52.4652 32.035 52.9347 32.035 53.4388Z" fill="#C9A96E"/>
<path d="M85 49.301H82.1869L55.0106 40.1689L27.8343 49.301H25L55.0106 38L85 49.301Z" fill="#C9A96E"/>
<path d="M85 70V71L25 71L25 70L85 70Z" fill="#C9A96E"/>
</svg>
