<svg width="109" height="109" viewBox="0 0 109 109" fill="none" xmlns="http://www.w3.org/2000/svg">
<path d="M37.1569 34V41.5H35.1569V36H32.1569V43.5H30.1569V34H37.1569Z" fill="#F5F0E8"/>
<path d="M74.5512 67.36C72.8512 67.36 71.3312 67.1 69.9912 66.58C68.6512 66.06 67.5212 65.35 66.6012 64.45C65.6812 63.53 64.9812 62.48 64.5012 61.3C64.0212 60.12 63.7812 58.86 63.7812 57.52C63.7812 56.02 64.0612 54.69 64.6212 53.53C65.2012 52.35 66.0012 51.34 67.0212 50.5C68.0412 49.66 69.2312 49.02 70.5912 48.58C71.9712 48.14 73.4512 47.92 75.0312 47.92C76.1112 47.92 77.1112 48.02 78.0312 48.22C78.9712 48.42 79.7512 48.71 80.3712 49.09C80.5112 49.17 80.5912 49.24 80.6112 49.3C80.6512 49.36 80.6812 49.51 80.7012 49.75L81.0612 53.29C81.0612 53.35 81.0112 53.39 80.9112 53.41C80.8112 53.43 80.7412 53.4 80.7012 53.32C80.5012 52.6 80.2312 51.94 79.8912 51.34C79.5512 50.74 79.1312 50.23 78.6312 49.81C78.1312 49.37 77.5312 49.03 76.8312 48.79C76.1512 48.53 75.3612 48.4 74.4612 48.4C72.9012 48.4 71.4812 48.75 70.2012 49.45C68.9412 50.15 67.9412 51.15 67.2012 52.45C66.4612 53.75 66.0912 55.29 66.0912 57.07C66.0912 58.29 66.2812 59.49 66.6612 60.67C67.0412 61.83 67.6112 62.89 68.3712 63.85C69.1312 64.79 70.0912 65.54 71.2512 66.1C72.4112 66.64 73.7812 66.91 75.3612 66.91C76.3012 66.91 77.0512 66.79 77.6112 66.55C78.1912 66.31 78.6012 65.92 78.8412 65.38C79.1012 64.84 79.2312 64.13 79.2312 63.25C79.2312 62.29 79.1612 61.59 79.0212 61.15C78.9012 60.69 78.6012 60.39 78.1212 60.25C77.6612 60.11 76.8912 60.04 75.8112 60.04C75.6912 60.04 75.6312 59.96 75.6312 59.8C75.6312 59.64 75.6812 59.56 75.7812 59.56C77.0612 59.64 78.2212 59.69 79.2612 59.71C80.3012 59.71 81.3912 59.68 82.5312 59.62C82.6312 59.62 82.6812 59.69 82.6812 59.83C82.6812 59.97 82.6312 60.04 82.5312 60.04C82.0712 60.02 81.7312 60.09 81.5112 60.25C81.2912 60.39 81.1512 60.71 81.0912 61.21C81.0312 61.71 81.0012 62.49 81.0012 63.55C81.0012 64.21 81.0212 64.7 81.0612 65.02C81.1012 65.34 81.1312 65.58 81.1512 65.74C81.1912 65.88 81.2112 66.03 81.2112 66.19C81.2112 66.31 81.1912 66.39 81.1512 66.43C81.1112 66.47 81.0212 66.51 80.8812 66.55C79.8612 66.77 78.7912 66.96 77.6712 67.12C76.5712 67.28 75.5312 67.36 74.5512 67.36Z" fill="#C9A96E"/>
<path d="M41.8132 62.89C41.8132 61.97 42.0333 61.16 42.4733 60.46C42.9133 59.76 43.4733 59.12 44.1533 58.54C44.8533 57.96 45.5932 57.41 46.3732 56.89C47.1532 56.35 47.8832 55.79 48.5632 55.21C49.2632 54.63 49.8333 54.01 50.2733 53.35C50.7133 52.69 50.9333 51.93 50.9333 51.07C50.9333 50.17 50.6932 49.48 50.2132 49C49.7332 48.5 49.1032 48.25 48.3232 48.25C47.5632 48.25 46.9732 48.48 46.5532 48.94C46.1532 49.4 45.9532 50.13 45.9532 51.13C45.9532 52.17 46.1733 53.23 46.6133 54.31C47.0533 55.37 47.6633 56.42 48.4433 57.46C49.2233 58.5 50.1133 59.51 51.1133 60.49C52.1333 61.47 53.2032 62.38 54.3232 63.22C55.5832 64.16 56.7832 64.93 57.9232 65.53C59.0632 66.11 60.0232 66.48 60.8032 66.64C60.9032 66.66 60.9433 66.73 60.9233 66.85C60.9033 66.95 60.8632 67 60.8032 67C60.3632 67 59.8533 67 59.2733 67C58.6933 67 58.1233 67 57.5633 67C57.3033 67 56.9633 66.92 56.5433 66.76C56.1233 66.6 55.5832 66.32 54.9232 65.92C54.2832 65.5 53.4932 64.9 52.5532 64.12C51.5532 63.32 50.5733 62.45 49.6133 61.51C48.6533 60.57 47.7733 59.6 46.9733 58.6C46.1933 57.58 45.5633 56.59 45.0833 55.63C44.8233 55.05 44.6132 54.49 44.4532 53.95C44.2932 53.41 44.2132 52.89 44.2132 52.39C44.2132 51.51 44.4233 50.71 44.8433 49.99C45.2633 49.27 45.8433 48.7 46.5833 48.28C47.3233 47.84 48.1932 47.62 49.1932 47.62C49.7332 47.62 50.2732 47.71 50.8132 47.89C51.3532 48.05 51.8033 48.35 52.1632 48.79C52.5233 49.21 52.7033 49.81 52.7033 50.59C52.7033 51.45 52.4833 52.2 52.0433 52.84C51.6233 53.46 51.0633 54.04 50.3633 54.58C49.6833 55.1 48.9632 55.61 48.2032 56.11C47.4432 56.59 46.7233 57.11 46.0433 57.67C45.3633 58.21 44.8033 58.82 44.3633 59.5C43.9433 60.16 43.7332 60.94 43.7332 61.84C43.7332 62.68 43.9433 63.46 44.3633 64.18C44.8033 64.88 45.4032 65.44 46.1632 65.86C46.9233 66.26 47.7832 66.46 48.7432 66.46C49.6832 66.46 50.5532 66.26 51.3532 65.86C52.1532 65.44 52.8332 64.89 53.3932 64.21C53.9732 63.51 54.4132 62.72 54.7132 61.84C55.0332 60.94 55.1933 60.01 55.1933 59.05C55.1933 58.41 55.0633 57.89 54.8032 57.49C54.5632 57.09 53.9832 56.89 53.0632 56.89C53.0032 56.89 52.9633 56.83 52.9433 56.71C52.9433 56.59 52.9832 56.53 53.0632 56.53L59.3332 56.5C59.4132 56.5 59.4533 56.56 59.4533 56.68C59.4533 56.8 59.4132 56.86 59.3332 56.86C58.6332 56.86 58.1133 56.93 57.7733 57.07C57.4333 57.19 57.1932 57.38 57.0532 57.64C56.9132 57.9 56.7832 58.23 56.6632 58.63C56.4832 59.31 56.2332 60.05 55.9132 60.85C55.6133 61.63 55.2232 62.41 54.7432 63.19C54.2832 63.95 53.7132 64.65 53.0332 65.29C52.3532 65.91 51.5432 66.41 50.6032 66.79C49.6832 67.17 48.6132 67.36 47.3932 67.36C46.1132 67.36 45.0532 67.15 44.2132 66.73C43.3932 66.29 42.7832 65.73 42.3832 65.05C42.0032 64.35 41.8132 63.63 41.8132 62.89Z" fill="#C9A96E"/>
<path d="M28.0069 51.76C28.0069 52.58 28.2069 53.29 28.6069 53.89C29.0269 54.47 29.5569 54.98 30.1969 55.42C30.8369 55.86 31.5169 56.3 32.2369 56.74C32.9769 57.16 33.6869 57.61 34.3669 58.09C35.0669 58.57 35.6369 59.14 36.0769 59.8C36.5369 60.46 36.7669 61.27 36.7669 62.23C36.7669 63.19 36.5269 64.06 36.0469 64.84C35.5669 65.6 34.8669 66.21 33.9469 66.67C33.0469 67.13 31.9269 67.36 30.5869 67.36C30.1069 67.36 29.6269 67.32 29.1469 67.24C28.6869 67.18 28.2169 67.07 27.7369 66.91C27.2769 66.75 26.8169 66.55 26.3569 66.31C26.2569 66.25 26.1869 66.18 26.1469 66.1C26.1269 66 26.1069 65.88 26.0869 65.74L25.6969 61.66C25.6769 61.56 25.7169 61.51 25.8169 61.51C25.9369 61.49 26.0069 61.52 26.0269 61.6C26.1669 62.2 26.3669 62.81 26.6269 63.43C26.8869 64.05 27.2269 64.62 27.6469 65.14C28.0669 65.66 28.5769 66.08 29.1769 66.4C29.7769 66.72 30.4769 66.88 31.2769 66.88C31.8569 66.88 32.4169 66.77 32.9569 66.55C33.5169 66.33 33.9669 65.97 34.3069 65.47C34.6669 64.97 34.8469 64.29 34.8469 63.43C34.8469 62.45 34.6269 61.64 34.1869 61C33.7669 60.34 33.2269 59.77 32.5669 59.29C31.9069 58.81 31.2069 58.36 30.4669 57.94C29.7669 57.5 29.0869 57.05 28.4269 56.59C27.7869 56.13 27.2569 55.59 26.8369 54.97C26.4369 54.33 26.2369 53.54 26.2369 52.6C26.2369 51.54 26.5069 50.67 27.0469 49.99C27.5869 49.29 28.2869 48.77 29.1469 48.43C30.0069 48.09 30.8969 47.92 31.8169 47.92C32.3769 47.92 32.9569 47.98 33.5569 48.1C34.1569 48.2 34.7469 48.38 35.3269 48.64C35.4869 48.7 35.5969 48.78 35.6569 48.88C35.7369 48.96 35.7769 49.05 35.7769 49.15L35.9869 52.57C35.9869 52.65 35.9369 52.7 35.8369 52.72C35.7369 52.72 35.6669 52.68 35.6269 52.6C35.5869 52.2 35.4769 51.76 35.2969 51.28C35.1169 50.78 34.8569 50.31 34.5169 49.87C34.1769 49.43 33.7469 49.07 33.2269 48.79C32.7069 48.51 32.0769 48.37 31.3369 48.37C30.5569 48.37 29.9169 48.54 29.4169 48.88C28.9369 49.2 28.5769 49.62 28.3369 50.14C28.1169 50.64 28.0069 51.18 28.0069 51.76Z" fill="#C9A96E"/>
<path d="M88.2897 47H85.088L54.1569 36.4949L23.2259 47H20L54.1569 34L88.2897 47Z" fill="#C9A96E"/>
<path d="M42.8339 91.0917C42.8686 91.1011 42.8766 91.1406 42.8577 91.2101C42.8389 91.2796 42.8121 91.3096 42.7773 91.3002C42.3257 91.1776 42.0157 91.1743 41.8474 91.2903C41.6645 91.4147 41.507 91.7201 41.375 92.2066L40.6113 95.0208C40.4228 95.7157 40.4135 96.254 40.5834 96.6358C40.7502 97.0292 41.1115 97.3014 41.6674 97.4522C42.0844 97.5654 42.549 97.5485 43.0614 97.4015C43.5737 97.2546 44.0491 96.9919 44.4875 96.6135L44.5004 96.8408C43.8054 97.3858 43.165 97.7529 42.579 97.942C41.9814 98.128 41.422 98.1503 40.9009 98.0089C40.2639 97.8361 39.8204 97.523 39.5704 97.0697C39.3057 96.6248 39.2692 96.0492 39.4609 95.3427L40.3848 91.9379C40.5168 91.4514 40.5411 91.1099 40.4577 90.9132C40.3596 90.7249 40.0847 90.5695 39.633 90.4469C39.5983 90.4375 39.5903 90.3981 39.6092 90.3286C39.6281 90.2591 39.6549 90.2291 39.6896 90.2385C39.8865 90.2919 40.1223 90.3621 40.3971 90.4491C40.6603 90.533 40.9425 90.6158 41.2436 90.6975C41.5447 90.7792 41.8358 90.852 42.1169 90.9158C42.398 90.9797 42.637 91.0383 42.8339 91.0917ZM47.5069 92.3598C47.5416 92.3692 47.5496 92.4087 47.5307 92.4781C47.5119 92.5476 47.4851 92.5777 47.4503 92.5682C46.9987 92.4457 46.6887 92.4424 46.5205 92.5584C46.3375 92.6828 46.18 92.9882 46.048 93.4746L45.1146 96.9142C45.0109 97.2964 44.9818 97.5869 45.0273 97.7858C45.0581 97.9931 45.1893 98.1282 45.421 98.191C45.5368 98.2224 45.682 98.237 45.8567 98.2347C46.0199 98.2292 46.2109 98.2126 46.4297 98.185C46.4792 98.186 46.5135 98.2201 46.5325 98.2875C46.5399 98.3517 46.5174 98.3891 46.4647 98.3997L44.1904 98.8083C44.1525 98.8104 44.1162 98.8068 44.0814 98.7974C44.0003 98.7754 43.9291 98.6255 43.8677 98.3477C43.8063 98.0699 43.8385 97.6994 43.9642 97.2362L45.0578 93.2059C45.1898 92.7195 45.2141 92.3779 45.1307 92.1812C45.0326 91.993 44.7577 91.8376 44.306 91.715C44.2713 91.7056 44.2633 91.6661 44.2822 91.5966C44.3011 91.5271 44.3279 91.4971 44.3626 91.5065C44.5595 91.56 44.7953 91.6302 45.0701 91.7172C45.3334 91.801 45.6155 91.8838 45.9166 91.9655C46.2177 92.0473 46.5088 92.12 46.7899 92.1839C47.071 92.2477 47.31 92.3063 47.5069 92.3598Z" fill="#F5F0E8"/>
<path d="M53.8031 92.4686C54.5109 92.4854 55.1246 92.674 55.6442 93.0345C56.1638 93.3949 56.5607 93.8664 56.835 94.4491C57.1089 95.0438 57.238 95.677 57.222 96.3488C57.2072 96.9726 57.0805 97.5098 56.8417 97.9602C56.603 98.4107 56.2882 98.7753 55.8975 99.0542C55.5065 99.345 55.0873 99.5571 54.6401 99.6905C54.1808 99.8237 53.7352 99.8851 53.3033 99.8749C52.5715 99.8575 51.952 99.6628 51.4446 99.2906C50.9253 98.9182 50.5344 98.4468 50.2718 97.8764C50.0093 97.306 49.8854 96.7089 49.9002 96.0851C49.9184 95.3173 50.108 94.6616 50.469 94.118C50.83 93.5744 51.302 93.1595 51.8849 92.8733C52.4679 92.587 53.1073 92.4521 53.8031 92.4686ZM53.2731 92.7982C52.6373 92.7831 52.1282 92.9931 51.7457 93.4281C51.363 93.8752 51.1597 94.6026 51.1358 95.6103C51.1179 96.3661 51.2281 97.0349 51.4663 97.6167C51.6923 98.2102 52.0174 98.674 52.4416 99.0082C52.8655 99.3543 53.3534 99.534 53.9052 99.5471C54.5411 99.5621 55.0445 99.34 55.4155 98.8807C55.7865 98.4213 55.9824 97.7538 56.0031 96.878C56.0205 96.1462 55.9165 95.4716 55.691 94.8541C55.4656 94.2366 55.1472 93.7429 54.7359 93.373C54.3125 93.0029 53.825 92.8113 53.2731 92.7982Z" fill="#F5F0E8"/>
<path d="M62.9172 91.9098C62.9408 91.9055 62.959 91.9388 62.9717 92.0097C62.9844 92.0806 62.979 92.1181 62.9554 92.1224C62.4947 92.2051 62.2074 92.336 62.0932 92.515C61.9694 92.7079 61.952 93.0524 62.0411 93.5484L62.6362 96.8614C62.7104 97.2748 62.8059 97.5686 62.9225 97.7427C63.0412 97.9286 63.2128 98.0014 63.4372 97.9611C63.5317 97.9442 63.6397 97.9004 63.7611 97.8298C63.8846 97.771 64.0276 97.6844 64.1899 97.5699C64.235 97.5496 64.2806 97.5658 64.3266 97.6185C64.363 97.6851 64.3656 97.7334 64.3344 97.7634L62.2222 99.2401C62.1889 99.2583 62.1663 99.2684 62.1545 99.2705C62.1309 99.2748 62.0982 99.2624 62.0564 99.2333C62.0167 99.216 61.9937 99.1897 61.9873 99.1543C61.9703 99.0598 61.9349 98.8284 61.8809 98.4601C61.827 98.0919 61.7491 97.6243 61.6472 97.0574L61.049 93.7267C60.9599 93.2306 60.8355 92.9115 60.6759 92.7695C60.5066 92.6414 60.1857 92.6198 59.7133 92.7047C59.6778 92.7111 59.6537 92.6788 59.641 92.6079C59.6283 92.5371 59.6396 92.4985 59.6751 92.4921C59.8877 92.4539 60.1368 92.4153 60.4223 92.3762C60.6961 92.3392 60.9866 92.2931 61.2936 92.2379C61.6007 92.1828 61.8949 92.1238 62.1763 92.0611C62.4458 92.0005 62.6928 91.9501 62.9172 91.9098ZM63.0583 101.248C63.2945 101.205 63.4952 101.236 63.6602 101.341C63.8253 101.445 63.929 101.616 63.9715 101.852C64.0139 102.088 63.9759 102.284 63.8575 102.439C63.7391 102.595 63.5618 102.694 63.3256 102.736C63.0894 102.779 62.8946 102.746 62.7414 102.64C62.5881 102.533 62.4903 102.362 62.4479 102.126C62.3588 101.63 62.5622 101.337 63.0583 101.248Z" fill="#F5F0E8"/>
<path d="M67.3245 90.2535C67.5953 90.1553 67.8711 90.1063 68.152 90.1065C68.4288 90.0955 68.683 90.1629 68.9146 90.3086C69.1462 90.4544 69.3254 90.7022 69.4522 91.0519L70.8944 95.0284C70.9926 95.2992 71.0832 95.4961 71.1661 95.6192C71.249 95.7423 71.3587 95.7983 71.4951 95.7871C71.6355 95.7872 71.8355 95.7402 72.0949 95.6461C72.1401 95.6298 72.1749 95.6554 72.1994 95.7231C72.2281 95.8021 72.2198 95.8498 72.1747 95.8661C71.7276 96.0411 71.4059 96.2981 71.2098 96.6373C71.0024 96.9806 70.9493 97.3445 71.0505 97.729C71.0628 97.7629 71.0294 97.7941 70.9505 97.8227C70.8602 97.8555 70.8089 97.8549 70.7967 97.8211L68.6794 91.9832C68.5117 91.5206 68.2741 91.2175 67.9667 91.0737C67.6479 90.934 67.2742 90.9419 66.8455 91.0973C66.5522 91.2037 66.3091 91.3429 66.1162 91.515C65.9162 91.7024 65.7653 91.8848 65.6637 92.0621C65.6267 92.101 65.5811 92.0984 65.5268 92.0543C65.4653 92.0255 65.451 91.986 65.4838 91.9358C65.7867 91.4686 66.0807 91.1003 66.366 90.8309C66.644 90.5769 66.9635 90.3844 67.3245 90.2535ZM67.8249 96.7544C68.3058 96.7076 68.7554 96.6275 69.1738 96.5141C69.5922 96.4006 70.0327 96.26 70.4952 96.0923L70.6302 96.4646C70.179 96.6282 69.7508 96.8026 69.3457 96.9879C68.9405 97.1731 68.5093 97.3742 68.0518 97.5911C68.0293 97.5993 67.9924 97.568 67.9412 97.4972C67.8787 97.4305 67.827 97.3408 67.7861 97.228C67.7574 97.149 67.7473 97.0506 67.7556 96.9327C67.7526 96.8189 67.7757 96.7594 67.8249 96.7544Z" fill="#F5F0E8"/>
<path d="M74.1388 86.8725C74.8349 86.4467 75.4939 86.2477 76.1156 86.2753C76.7437 86.3132 77.3061 86.4967 77.8028 86.8259C78.2956 87.1715 78.6891 87.5849 78.9834 88.0661C79.2964 88.5779 79.4778 89.093 79.5275 89.6112C79.5669 90.1356 79.5074 90.6362 79.3489 91.113C79.1904 91.5898 78.9553 92.0219 78.6437 92.4094C78.3321 92.7969 77.987 93.1065 77.6082 93.3382C77.3113 93.5198 77.0048 93.651 76.6885 93.7319C76.3683 93.8293 76.0773 93.8596 75.8156 93.8227C75.5437 93.7921 75.3514 93.6846 75.2387 93.5004C75.1573 93.3673 75.1314 93.2214 75.1609 93.0627C75.1967 92.9142 75.3016 92.7867 75.4756 92.6803C75.6394 92.5801 75.8089 92.5468 75.9841 92.5802C76.1491 92.62 76.3081 92.6845 76.4612 92.7738C76.6865 92.8891 76.9103 92.9562 77.1328 92.9749C77.3552 92.9936 77.62 92.909 77.9271 92.7211C78.5106 92.3642 78.8201 91.8584 78.8557 91.2036C78.8976 90.5591 78.6962 89.8734 78.2517 89.1466C77.9323 88.6245 77.5479 88.1915 77.0984 87.8475C76.6386 87.5098 76.1348 87.3186 75.587 87.2738C75.0454 87.2393 74.4727 87.4068 73.8687 87.7762C73.5923 87.9453 73.3429 88.147 73.1206 88.3815C72.8983 88.6159 72.7288 88.9024 72.6124 89.2409C72.6044 89.2739 72.5725 89.2794 72.5168 89.2572C72.4508 89.2413 72.4218 89.2168 72.4297 89.1838C72.5939 88.6474 72.8082 88.1928 73.0726 87.8201C73.3432 87.4576 73.6986 87.1417 74.1388 86.8725Z" fill="#F5F0E8"/>
<path d="M82.4066 80.0865C82.8228 79.6712 83.2855 79.4724 83.7946 79.4899C84.3037 79.5244 84.8125 79.7966 85.321 80.3063L87.2661 82.2559C87.5967 82.5872 87.8637 82.7954 88.0673 82.8805C88.2708 82.9826 88.4448 82.9615 88.5892 82.8175C88.7081 82.6988 88.8102 82.5122 88.8953 82.2578C88.9208 82.2154 88.9717 82.207 89.0481 82.2325C89.1159 82.2665 89.1371 82.3047 89.1116 82.3471L88.3328 84.3954C88.3243 84.4209 88.3115 84.4421 88.2945 84.459C88.2691 84.4844 88.2309 84.4971 88.18 84.4971C88.129 84.514 88.0908 84.5097 88.0654 84.4842L85.027 81.4387C84.5269 80.9375 84.0648 80.6527 83.6406 80.5843C83.2249 80.5245 82.8387 80.6725 82.4819 81.0285C82.159 81.3505 81.9337 81.7703 81.8058 82.2878C81.6694 82.8137 81.6433 83.3652 81.7275 83.9423L81.524 83.8657C81.4147 82.9746 81.4325 82.2194 81.5775 81.6002C81.7225 80.9979 81.9988 80.4933 82.4066 80.0865ZM84.6886 87.8532L81.1289 84.2853C80.8408 83.9964 80.5991 83.8222 80.404 83.7626C80.2089 83.7029 80.0307 83.7536 79.8693 83.9147C79.7843 83.9994 79.7036 84.1054 79.6271 84.2326C79.5506 84.3768 79.4655 84.5549 79.3719 84.7669C79.3464 84.8262 79.2997 84.8389 79.2319 84.8049C79.1725 84.7794 79.1513 84.7412 79.1684 84.6903L79.96 82.502C79.9685 82.4765 79.9813 82.4553 79.9983 82.4384C80.0662 82.3706 80.2317 82.3835 80.4946 82.4771C80.766 82.5793 81.0712 82.8003 81.4103 83.1401L83.8893 85.6249C84.2199 85.9562 84.4869 86.1644 84.6905 86.2495C84.894 86.3515 85.068 86.3305 85.2124 86.1864C85.3313 86.0678 85.4334 85.8812 85.5185 85.6268C85.544 85.5844 85.5907 85.5802 85.6585 85.6142C85.7264 85.6482 85.7475 85.6864 85.722 85.7288L84.9433 87.7771C84.9347 87.8026 84.9262 87.8195 84.9177 87.828C84.8923 87.8534 84.8541 87.8661 84.8031 87.8661C84.7522 87.883 84.714 87.8787 84.6886 87.8532Z" fill="#F5F0E8"/>
<path d="M91.6459 76.2016L91.8518 76.2462C92.0721 76.9097 92.2274 77.44 92.3176 77.8372C92.418 78.2407 92.4595 78.5576 92.4422 78.7878C92.4286 79.0345 92.3707 79.2391 92.2684 79.4016C92.1341 79.6148 91.9421 79.7846 91.6923 79.9109C91.4362 80.0474 91.2218 80.0613 91.0492 79.9526C90.9172 79.8695 90.8342 79.7534 90.8004 79.6045C90.7602 79.4657 90.7912 79.3151 90.8935 79.1526C90.9767 79.0206 91.0876 78.9345 91.2264 78.8943C91.3652 78.854 91.5021 78.8055 91.6371 78.7488C91.7722 78.692 91.8908 78.5824 91.9932 78.4199C92.0507 78.3285 92.0861 78.2161 92.0993 78.0825C92.1124 77.949 92.082 77.7384 92.0079 77.4507C91.944 77.1693 91.8233 76.753 91.6459 76.2016ZM88.4583 72.1094C88.4775 72.079 88.5175 72.0829 88.5785 72.1213C88.6394 72.1597 88.6602 72.1941 88.6411 72.2245C88.3917 72.6206 88.2978 72.916 88.3595 73.1108C88.4249 73.3222 88.6708 73.5622 89.0973 73.8307L92.1131 75.73C92.4481 75.941 92.7174 76.0539 92.9209 76.0686C93.1281 76.0998 93.2957 76.0139 93.4236 75.8108C93.4875 75.7093 93.544 75.5747 93.5929 75.4069C93.6354 75.2493 93.6755 75.0619 93.7131 74.8445C93.7285 74.7975 93.7712 74.7747 93.8412 74.7762C93.9047 74.7879 93.9339 74.8204 93.9286 74.8738L93.6536 77.1682C93.6446 77.2051 93.6305 77.2387 93.6113 77.2692C93.5665 77.3403 93.4024 77.3645 93.1188 77.3419C92.8352 77.3193 92.4903 77.1801 92.0842 76.9243L88.5505 74.6989C88.2662 74.5199 88.0204 74.4147 87.8132 74.3835C87.6161 74.3586 87.4251 74.4368 87.24 74.6181C87.0549 74.7994 86.8313 75.0982 86.5691 75.5145C86.5436 75.5551 86.5003 75.5562 86.4394 75.5178C86.3784 75.4795 86.3608 75.44 86.3864 75.3994C86.5398 75.1557 86.7272 74.8695 86.9483 74.5408C87.1631 74.2223 87.3856 73.8802 87.6159 73.5147C87.7821 73.2506 87.9369 72.9936 88.0802 72.7435C88.2236 72.4934 88.3496 72.2821 88.4583 72.1094Z" fill="#F5F0E8"/>
<path d="M90.0552 67.8359C90.1597 67.5675 90.3045 67.3277 90.4898 67.1165C90.6638 66.901 90.882 66.7541 91.1442 66.6759C91.4064 66.5977 91.7109 66.6261 92.0575 66.7611L95.9993 68.2958C96.2677 68.4003 96.4755 68.4619 96.6228 68.4806C96.77 68.4993 96.8843 68.4537 96.9658 68.3437C97.0584 68.2381 97.1548 68.0567 97.2549 67.7995C97.2723 67.7548 97.3146 67.7455 97.3817 67.7716C97.46 67.8021 97.4904 67.8397 97.473 67.8844C97.31 68.3361 97.2915 68.7474 97.4175 69.1184C97.5391 69.5006 97.7779 69.7802 98.1339 69.9575C98.1674 69.9705 98.169 70.0162 98.1385 70.0945C98.1037 70.1839 98.0695 70.2221 98.0359 70.2091L92.2491 67.956C91.7906 67.7775 91.406 67.7565 91.0953 67.8931C90.7802 68.0409 90.5399 68.3272 90.3745 68.7521C90.2613 69.0429 90.2059 69.3175 90.2083 69.576C90.2175 69.85 90.2553 70.0836 90.3217 70.2769C90.3266 70.3303 90.2946 70.3629 90.2257 70.3747C90.1635 70.402 90.1244 70.3868 90.1082 70.329C89.9562 69.7933 89.8728 69.3295 89.8581 68.9374C89.8502 68.5609 89.9158 68.1937 90.0552 67.8359ZM95.2757 71.7421C95.5573 71.3495 95.7932 70.9585 95.9835 70.569C96.1738 70.1795 96.3582 69.7555 96.5367 69.297L96.9057 69.4407C96.7316 69.888 96.5807 70.325 96.4532 70.7518C96.3256 71.1786 96.1928 71.6356 96.0547 72.1226C96.046 72.145 95.9981 72.1521 95.9111 72.144C95.8198 72.1471 95.7182 72.1269 95.6064 72.0833C95.5281 72.0528 95.4474 71.9956 95.3641 71.9117C95.2766 71.839 95.2471 71.7824 95.2757 71.7421Z" fill="#F5F0E8"/>
<path d="M98.2295 60.5947C97.923 60.5365 97.6491 60.5639 97.4078 60.6769C97.1642 60.8017 96.9434 60.9674 96.7454 61.1741C96.5569 61.3948 96.3662 61.6273 96.1733 61.8716C95.9618 62.1491 95.742 62.4066 95.5136 62.6442C95.2971 62.884 95.0483 63.0688 94.7671 63.1987C94.4978 63.3308 94.1686 63.3599 93.7795 63.286C93.4023 63.2144 93.0665 63.0529 92.7722 62.8017C92.4897 62.5526 92.284 62.2204 92.1552 61.8051C92.0242 61.4016 92.0101 60.9287 92.1131 60.3864C92.169 60.0916 92.264 59.8165 92.398 59.561C92.5202 59.3033 92.7095 59.0461 92.9658 58.7894C92.9939 58.7703 93.0278 58.7523 93.0677 58.7354C93.1075 58.7186 93.151 58.7146 93.1982 58.7236L94.5843 58.95C94.6196 58.9567 94.6317 58.9896 94.6205 59.0485C94.6189 59.1215 94.5993 59.1605 94.5617 59.1656C94.134 59.231 93.7644 59.344 93.453 59.5048C93.1533 59.6678 92.907 59.8714 92.7141 60.1157C92.5329 60.3622 92.4132 60.6388 92.3551 60.9453C92.2834 61.3226 92.3229 61.6293 92.4735 61.8655C92.6219 62.1135 92.8799 62.2663 93.2476 62.3239C93.5917 62.377 93.8856 62.3412 94.1291 62.2164C94.3727 62.0917 94.5887 61.9189 94.7771 61.6982C94.9752 61.4915 95.1636 61.2708 95.3425 61.036C95.54 60.7682 95.741 60.5132 95.9458 60.2711C96.1601 60.0431 96.4078 59.8641 96.6889 59.7343C96.9678 59.6162 97.3077 59.5953 97.7086 59.6713C98.1684 59.7586 98.5173 59.947 98.7555 60.2365C99.0055 60.5283 99.1607 60.8692 99.221 61.2593C99.2931 61.6516 99.2911 62.0482 99.215 62.449C99.1725 62.673 99.1134 62.8878 99.0377 63.0933C98.9621 63.2988 98.851 63.4975 98.7047 63.6896C98.6491 63.789 98.5742 63.8297 98.4799 63.8118C98.2913 63.776 98.092 63.7321 97.882 63.68C97.6838 63.6302 97.4551 63.5807 97.1957 63.5314C97.1721 63.5269 97.167 63.4893 97.1805 63.4186C97.1939 63.3479 97.2124 63.3147 97.236 63.3192C97.5071 63.3707 97.7667 63.3222 98.0147 63.1739C98.2627 63.0255 98.4726 62.8211 98.6442 62.5605C98.8276 62.3022 98.9461 62.0315 98.9998 61.7486C99.0535 61.4657 99.0217 61.2153 98.9042 60.9976C98.7845 60.7917 98.5596 60.6574 98.2295 60.5947Z" fill="#F5F0E8"/>
<path d="M92.6426 53.0427C92.6413 53.0067 92.6766 52.9874 92.7485 52.9847C92.8205 52.982 92.8571 52.9987 92.8584 53.0346C92.8759 53.5023 92.9651 53.7992 93.1259 53.9253C93.2991 54.0629 93.6376 54.1223 94.1412 54.1035L97.0552 53.9947C97.7747 53.9678 98.2914 53.8165 98.6053 53.5406C98.9312 53.2642 99.0835 52.8382 99.062 52.2626C99.0458 51.8309 98.8914 51.3924 98.5985 50.947C98.3057 50.5016 97.9134 50.126 97.4217 49.8201L97.6348 49.7401C98.362 50.2413 98.9032 50.7435 99.2582 51.2466C99.6136 51.7617 99.8015 52.289 99.8216 52.8287C99.8462 53.4882 99.6794 54.0048 99.3211 54.3784C98.9752 54.7636 98.4365 54.9698 97.7051 54.9972L94.1795 55.1288C93.6759 55.1476 93.3426 55.2261 93.1796 55.3643C93.0291 55.514 92.9626 55.8227 92.98 56.2904C92.9814 56.3264 92.9461 56.3457 92.8741 56.3484C92.8022 56.3511 92.7655 56.3344 92.7642 56.2984C92.7566 56.0946 92.7534 55.8485 92.7546 55.5603C92.7563 55.284 92.7513 54.99 92.7397 54.6782C92.7281 54.3664 92.7109 54.0669 92.6881 53.7795C92.6654 53.4922 92.6502 53.2466 92.6426 53.0427ZM92.4619 48.2041C92.4606 48.1681 92.4959 48.1488 92.5678 48.1461C92.6398 48.1434 92.6764 48.16 92.6778 48.196C92.6952 48.6637 92.7844 48.9606 92.9452 49.0867C93.1184 49.2243 93.4569 49.2837 93.9605 49.2649L97.5221 49.1319C97.9178 49.1171 98.2038 49.0584 98.3801 48.9558C98.5688 48.8647 98.6587 48.6992 98.6497 48.4594C98.6453 48.3394 98.6159 48.1964 98.5617 48.0303C98.5079 47.8762 98.4352 47.6988 98.3437 47.4981C98.3299 47.4506 98.3523 47.4077 98.4109 47.3695C98.47 47.3433 98.5124 47.3537 98.5382 47.4008L99.6054 49.4504C99.6187 49.4859 99.6261 49.5217 99.6274 49.5576C99.6305 49.6416 99.5087 49.7542 99.2618 49.8955C99.0149 50.0368 98.6516 50.1164 98.1719 50.1344L93.9988 50.2902C93.4952 50.309 93.1619 50.3875 92.9989 50.5257C92.8484 50.6754 92.7819 50.9841 92.7993 51.4518C92.8007 51.4877 92.7654 51.5071 92.6934 51.5097C92.6215 51.5124 92.5848 51.4958 92.5835 51.4598C92.5759 51.256 92.5727 51.0099 92.5739 50.7217C92.5756 50.4454 92.5707 50.1514 92.559 49.8396C92.5474 49.5278 92.5302 49.2282 92.5074 48.9409C92.4847 48.6535 92.4695 48.4079 92.4619 48.2041Z" fill="#F5F0E8"/>
<path d="M90.611 42.1908C90.4057 41.5132 90.3931 40.8713 90.5731 40.2651C90.7531 39.6588 91.077 39.1344 91.5448 38.6918C92.024 38.2457 92.5853 37.9253 93.2284 37.7305C93.8256 37.5496 94.3755 37.5022 94.878 37.5882C95.3805 37.6742 95.8252 37.8592 96.2122 38.1433C96.6106 38.4238 96.9431 38.7557 97.2096 39.1389C97.4796 39.5335 97.6772 39.9376 97.8025 40.3511C98.0147 41.0516 98.0233 41.701 97.8283 42.2992C97.6368 42.9089 97.3112 43.4276 96.8514 43.8552C96.3917 44.2829 95.8632 44.5871 95.266 44.768C94.5309 44.9906 93.8488 45.0154 93.2197 44.8424C92.5905 44.6694 92.0488 44.3507 91.5948 43.8864C91.1407 43.4221 90.8127 42.8569 90.611 42.1908ZM91.0896 42.5912C91.274 43.1999 91.6325 43.6179 92.1653 43.8452C92.7096 44.0691 93.4641 44.0349 94.4288 43.7427C95.1523 43.5235 95.7532 43.2099 96.2314 42.8017C96.7246 42.4016 97.0636 41.9478 97.2485 41.4404C97.4448 40.9296 97.463 40.41 97.303 39.8817C97.1186 39.273 96.7503 38.8642 96.198 38.6554C95.6457 38.4465 94.9504 38.469 94.112 38.723C93.4115 38.9352 92.8031 39.2448 92.287 39.6519C91.7708 40.059 91.4013 40.5157 91.1786 41.022C90.9592 41.5399 90.9296 42.0629 91.0896 42.5912Z" fill="#F5F0E8"/>
<path d="M95.8131 26.8181C96.0941 27.2364 96.3218 27.6184 96.496 27.9639C96.677 28.3194 96.8163 28.6667 96.914 29.0059C97.0217 29.3383 97.0978 29.6992 97.1425 30.0884C97.1495 30.1849 97.1414 30.2482 97.1182 30.2782C97.1116 30.3115 97.0469 30.3766 96.9241 30.4736L95.2665 31.8473C95.2466 31.8606 95.2099 31.8491 95.1565 31.8127C95.1131 31.7696 95.1046 31.7247 95.1311 31.678C95.804 30.8935 96.179 30.1067 96.2561 29.3177C96.34 28.5386 96.1075 27.7406 95.5589 26.9238C94.9901 26.0771 94.3073 25.4587 93.5105 25.0688C92.7204 24.6888 91.8662 24.547 90.948 24.6434C90.0364 24.7497 89.1224 25.1107 88.206 25.7263C87.5485 26.1679 87.0045 26.6923 86.574 27.2996C86.1601 27.9101 85.8678 28.5618 85.6971 29.2546C85.5364 29.9408 85.5072 30.6182 85.6094 31.2868C85.7182 31.9654 85.9667 32.5936 86.3548 33.1713C86.9102 33.9981 87.5577 34.5317 88.2974 34.7721C89.047 35.0058 89.9123 34.9811 90.8931 34.6981C90.9297 34.688 90.9598 34.7112 90.9832 34.7677C91.0134 34.8342 91.0186 34.8741 90.9986 34.8875L89.2547 35.8421C89.1284 35.9124 89.0437 35.9477 89.0004 35.9478C88.9571 35.948 88.8955 35.9315 88.8155 35.8985C88.2086 35.5545 87.7064 35.1835 87.309 34.7855C86.9015 34.3942 86.5038 33.9097 86.1157 33.3319C85.4065 32.276 84.9817 31.2025 84.8414 30.1113C84.7178 29.0234 84.8674 27.9978 85.29 27.0344C85.7293 26.0744 86.4371 25.2665 87.4133 24.6108C88.1305 24.129 88.8683 23.8286 89.6268 23.7094C90.3951 23.5836 91.1524 23.6242 91.8987 23.8313C92.6449 24.0384 93.3534 24.3937 94.0241 24.8973C94.6949 25.4008 95.2912 26.0411 95.8131 26.8181Z" fill="#F5F0E8"/>
<path d="M76.6926 16.6495L76.7398 16.4442C77.4061 16.2325 77.9384 16.0841 78.3367 15.999C78.7415 15.9038 79.0589 15.8664 79.2888 15.8867C79.5354 15.9035 79.7392 15.9641 79.9003 16.0685C80.1118 16.2055 80.2791 16.3997 80.4022 16.6511C80.5354 16.9089 80.5465 17.1235 80.4356 17.2947C80.3507 17.4256 80.2336 17.507 80.0843 17.5389C79.945 17.5773 79.7948 17.5444 79.6336 17.44C79.5027 17.3551 79.4181 17.2431 79.3796 17.1038C79.3412 16.9645 79.2945 16.8269 79.2394 16.6912C79.1844 16.5554 79.0763 16.4354 78.9152 16.331C78.8246 16.2722 78.7126 16.2354 78.5792 16.2205C78.4459 16.2056 78.2349 16.2333 77.9463 16.3037C77.6641 16.3639 77.2462 16.4792 76.6926 16.6495ZM72.5596 19.784C72.5294 19.7644 72.5338 19.7244 72.573 19.664C72.6121 19.6036 72.6468 19.5831 72.677 19.6027C73.0698 19.8572 73.364 19.9549 73.5596 19.8957C73.7718 19.8331 74.0149 19.5902 74.289 19.1673L76.2271 16.1763C76.4424 15.844 76.5588 15.5762 76.5761 15.3729C76.61 15.1661 76.5262 14.9974 76.3248 14.8669C76.2241 14.8017 76.0902 14.7435 75.9231 14.6924C75.7661 14.6479 75.5792 14.6054 75.3623 14.565C75.3155 14.5489 75.2933 14.5059 75.2957 14.436C75.3082 14.3726 75.3411 14.3439 75.3944 14.3498L77.6851 14.6545C77.7218 14.664 77.7553 14.6785 77.7855 14.6981C77.856 14.7438 77.8781 14.9082 77.8519 15.1915C77.8256 15.4748 77.682 15.8178 77.4209 16.2206L75.15 19.7252C74.9673 20.0072 74.859 20.2516 74.8251 20.4584C74.7977 20.6551 74.8734 20.8472 75.0523 21.0346C75.2311 21.222 75.527 21.4494 75.9399 21.717C75.9802 21.7431 75.9808 21.7864 75.9416 21.8468C75.9025 21.9072 75.8627 21.9244 75.8225 21.8983C75.5808 21.7416 75.297 21.5506 74.9712 21.3252C74.6555 21.1063 74.3163 20.8794 73.9538 20.6445C73.692 20.4748 73.4369 20.3167 73.1887 20.1702C72.9405 20.0236 72.7308 19.8949 72.5596 19.784Z" fill="#F5F0E8"/>
<path d="M65.5792 17.2062C65.0266 17.0053 64.6503 16.6705 64.4503 16.202C64.2657 15.7263 64.2964 15.1502 64.5424 14.4735L65.4834 11.8852C65.6433 11.4454 65.7186 11.1153 65.7094 10.8948C65.7155 10.6672 65.6227 10.5186 65.431 10.4489C65.2731 10.3915 65.0609 10.3782 64.7943 10.4089C64.7451 10.4038 64.7159 10.3613 64.7067 10.2813C64.7087 10.2054 64.7343 10.1701 64.7835 10.1752L66.9688 10.012C66.9955 10.0089 67.0201 10.0115 67.0426 10.0197C67.0765 10.032 67.1041 10.0612 67.1257 10.1073C67.1626 10.1463 67.1749 10.1827 67.1626 10.2165L65.6927 14.2596C65.4508 14.925 65.3889 15.4643 65.5068 15.8775C65.6288 16.2793 65.9267 16.5664 66.4003 16.7386C66.8289 16.8944 67.3046 16.9205 67.8275 16.8169C68.3616 16.7174 68.8722 16.5072 69.3591 16.1863L69.3761 16.4031C68.6154 16.8799 67.9239 17.1839 67.3016 17.3152C66.6946 17.4393 66.1205 17.403 65.5792 17.2062ZM71.6455 11.8463L69.9235 16.583C69.7841 16.9664 69.7288 17.2591 69.7575 17.4611C69.7862 17.6631 69.9077 17.803 70.122 17.8809C70.2348 17.9219 70.365 17.9501 70.5126 17.9655C70.6757 17.9736 70.873 17.9752 71.1047 17.97C71.1693 17.968 71.2006 18.0049 71.1985 18.0807C71.2006 18.1453 71.175 18.1807 71.1216 18.1869L68.8041 18.3977C68.7775 18.4008 68.7529 18.3982 68.7303 18.39C68.6401 18.3572 68.5816 18.2019 68.555 17.9241C68.5324 17.635 68.6031 17.2649 68.7671 16.8137L69.9663 13.515C70.1262 13.0751 70.2016 12.745 70.1923 12.5246C70.1985 12.297 70.1057 12.1483 69.9139 12.0786C69.7561 12.0212 69.5438 12.0079 69.2773 12.0387C69.2281 12.0336 69.2045 11.9931 69.2065 11.9172C69.2086 11.8413 69.2342 11.806 69.2834 11.8111L71.4687 11.6479C71.4953 11.6448 71.5143 11.6453 71.5256 11.6494C71.5594 11.6617 71.5871 11.691 71.6086 11.7371C71.6455 11.7761 71.6578 11.8124 71.6455 11.8463Z" fill="#F5F0E8"/>
<path d="M54.3635 15.9165C53.4999 15.89 52.7189 15.716 52.0204 15.3944C51.3343 15.0612 50.7477 14.617 50.2604 14.0618C49.7852 13.507 49.4204 12.8775 49.1658 12.1733C48.9237 11.4576 48.8147 10.7039 48.839 9.91225C48.8688 8.9407 49.0809 8.09481 49.4751 7.37456C49.8814 6.65468 50.4037 6.06442 51.0422 5.60378C51.681 5.13115 52.3759 4.78629 53.1269 4.56922C53.8779 4.35215 54.6192 4.25483 55.3509 4.27728C56.2385 4.30451 57.0251 4.49072 57.7109 4.83591C58.409 5.16948 58.9956 5.61367 59.4708 6.16851C59.946 6.72334 60.2991 7.34646 60.53 8.03787C60.7729 8.72964 60.8833 9.43536 60.8612 10.155C60.8355 10.9946 60.6436 11.7691 60.2857 12.4785C59.9278 13.1878 59.4467 13.8034 58.8424 14.3251C58.2501 14.8472 57.5654 15.2524 56.7882 15.5407C56.0233 15.8173 55.2151 15.9426 54.3635 15.9165ZM55.0048 15.558C55.8204 15.583 56.558 15.4135 57.2174 15.0496C57.8773 14.6736 58.4107 14.1137 58.8177 13.3699C59.2247 12.626 59.4449 11.7083 59.4784 10.6168C59.513 9.48936 59.3337 8.48739 58.9403 7.61092C58.5594 6.72282 57.9926 6.02111 57.2401 5.50579C56.4999 4.97885 55.6141 4.69955 54.5825 4.6679C53.2512 4.62706 52.2004 5.02703 51.4303 5.8678C50.6725 6.69696 50.271 7.84919 50.2257 9.32449C50.1996 10.1761 50.289 10.9772 50.4941 11.7279C50.7116 12.4669 51.0335 13.1251 51.46 13.7024C51.8869 14.2678 52.4014 14.7157 53.0035 15.0464C53.6061 15.365 54.2731 15.5355 55.0048 15.558Z" fill="#F5F0E8"/>
<path d="M39.1531 16.6396C39.4898 16.512 39.8002 16.5355 40.0846 16.71C40.3646 16.8734 40.6004 17.2075 40.7918 17.7124C40.9874 18.2286 41.0581 18.7536 41.0038 19.2875C40.9495 19.8214 40.8068 20.376 40.5757 20.9513C40.5435 21.002 40.5021 21.0112 40.4515 20.9791C40.405 20.9582 40.3867 20.9267 40.3964 20.8845C40.5253 20.4121 40.5674 19.9984 40.5226 19.6432C40.4778 19.288 40.3895 18.9365 40.2576 18.5886C40.1343 18.2632 39.986 18.0243 39.8127 17.8718C39.6549 17.7263 39.493 17.6208 39.327 17.5554L39.922 17.1951C40.0055 17.3816 40.0103 17.5467 39.9363 17.6902C39.8624 17.8337 39.7357 17.9395 39.5561 18.0075C39.3429 18.0883 39.1534 18.096 38.9874 18.0306C38.8284 17.9497 38.7106 17.8083 38.6341 17.6063C38.5533 17.3931 38.5533 17.207 38.6342 17.048C38.7221 16.8735 38.8951 16.7374 39.1531 16.6396Z" fill="#F5F0E8"/>
<path d="M33.9083 20.9749C33.8777 20.994 33.8434 20.973 33.8052 20.912C33.767 20.8509 33.7632 20.8109 33.7937 20.7918C34.1905 20.5436 34.4035 20.3184 34.4327 20.1162C34.4657 19.8974 34.3486 19.5743 34.0814 19.147L32.5353 16.6747C32.1535 16.0642 31.7648 15.6916 31.3692 15.5569C30.9672 15.412 30.522 15.4922 30.0337 15.7976C29.6674 16.0267 29.3641 16.3791 29.1238 16.8549C28.8835 17.3307 28.7533 17.858 28.7331 18.4367L28.5575 18.2918C28.6298 17.4115 28.7956 16.6922 29.055 16.1337C29.3245 15.5689 29.6881 15.1433 30.146 14.857C30.7056 14.507 31.2366 14.3943 31.7391 14.5188C32.2454 14.6268 32.6926 14.9911 33.0807 15.6118L34.9513 18.603C35.2185 19.0303 35.4527 19.2802 35.6536 19.3527C35.8585 19.4086 36.1593 19.3125 36.5561 19.0643C36.5866 19.0452 36.6209 19.0662 36.6591 19.1273C36.6973 19.1883 36.7011 19.2284 36.6706 19.2475C36.4976 19.3556 36.2859 19.481 36.0353 19.6235C35.7949 19.7597 35.5425 19.9105 35.278 20.0759C35.0134 20.2413 34.7623 20.4055 34.5244 20.5684C34.2866 20.7312 34.0812 20.8668 33.9083 20.9749ZM29.8029 23.5423C29.7724 23.5613 29.738 23.5404 29.6999 23.4793C29.6617 23.4183 29.6579 23.3782 29.6884 23.3591C30.0852 23.111 30.2982 22.8858 30.3274 22.6835C30.3604 22.4647 30.2433 22.1417 29.9761 21.7143L28.0864 18.6926C27.8764 18.3568 27.683 18.1381 27.5062 18.0364C27.3331 17.9181 27.1449 17.9226 26.9414 18.0499C26.8396 18.1135 26.7303 18.2102 26.6133 18.34C26.5065 18.4634 26.3889 18.6148 26.2604 18.7942C26.2261 18.8298 26.1778 18.8317 26.1154 18.7999C26.0633 18.7618 26.0512 18.7198 26.0791 18.674L27.3246 16.7275C27.3487 16.6983 27.3761 16.6741 27.4066 16.655C27.4778 16.6105 27.6362 16.66 27.8817 16.8037C28.1272 16.9474 28.3773 17.2227 28.6318 17.6297L30.846 21.1703C31.1132 21.5977 31.3473 21.8475 31.5483 21.92C31.7531 21.9759 32.0539 21.8798 32.4507 21.6317C32.4812 21.6126 32.5156 21.6335 32.5538 21.6946C32.5919 21.7556 32.5958 21.7957 32.5652 21.8148C32.3923 21.923 32.1805 22.0483 31.93 22.1908C31.6896 22.327 31.4372 22.4778 31.1726 22.6432C30.9081 22.8087 30.6569 22.9728 30.4191 23.1357C30.1813 23.2986 29.9759 23.4341 29.8029 23.5423Z" fill="#F5F0E8"/>
<path d="M25.5142 28.1482C25.0295 28.6643 24.4795 28.9956 23.8644 29.1422C23.2492 29.2888 22.6332 29.2699 22.0161 29.0854C21.3904 28.8928 20.8326 28.5664 20.3428 28.1063C19.888 27.6791 19.5724 27.2263 19.3962 26.7479C19.2199 26.2695 19.1583 25.7918 19.2112 25.3148C19.2555 24.8295 19.3771 24.3757 19.5761 23.9535C19.7834 23.5226 20.0349 23.1496 20.3306 22.8348C20.8318 22.3012 21.3902 21.9696 22.0059 21.84C22.6298 21.7016 23.2417 21.7249 23.8418 21.9099C24.4418 22.0949 24.9693 22.401 25.4241 22.8282C25.9839 23.354 26.3458 23.9327 26.5099 24.5642C26.674 25.1958 26.6682 25.8242 26.4925 26.4494C26.3168 27.0747 25.9907 27.6409 25.5142 28.1482ZM25.6223 27.5336C26.0577 27.07 26.241 26.5507 26.172 25.9756C26.0943 25.3922 25.6882 24.7555 24.9534 24.0654C24.4024 23.5478 23.8307 23.1837 23.2383 22.973C22.6455 22.7453 22.083 22.678 21.5511 22.7711C21.0105 22.8559 20.5512 23.0995 20.1732 23.5019C19.7378 23.9654 19.5674 24.4886 19.6621 25.0714C19.7567 25.6542 20.1233 26.2455 20.7618 26.8453C21.2953 27.3464 21.8673 27.719 22.4777 27.9631C23.088 28.2072 23.6682 28.2994 24.2182 28.2397C24.7763 28.1713 25.2444 27.9359 25.6223 27.5336Z" fill="#F5F0E8"/>
<path d="M19.8462 35.3067C19.8336 35.3271 19.7966 35.3184 19.7354 35.2805C19.6741 35.2427 19.6498 35.2135 19.6624 35.1931C19.9085 34.795 20.0031 34.4937 19.9461 34.2892C19.8852 34.0682 19.6404 33.8252 19.2117 33.5601L16.3486 31.7903C15.9914 31.5694 15.709 31.4442 15.5015 31.4147C15.2838 31.3789 15.115 31.458 14.9952 31.6519C14.9447 31.7336 14.9052 31.8432 14.8766 31.9807C14.8378 32.1119 14.8068 32.2761 14.7836 32.4734C14.7686 32.5205 14.7261 32.5436 14.6561 32.5427C14.5822 32.5253 14.5446 32.4949 14.5431 32.4517L14.8548 29.8934C14.8636 29.8565 14.8711 29.8329 14.8774 29.8227C14.89 29.8023 14.9211 29.7862 14.9706 29.7745C15.01 29.7565 15.045 29.757 15.0756 29.7759C15.1573 29.8264 15.3531 29.9546 15.6633 30.1604C15.9734 30.3662 16.3734 30.6205 16.8633 30.9234L19.7418 32.7027C20.1705 32.9678 20.491 33.0883 20.7033 33.0644C20.9117 33.0239 21.1421 32.7995 21.3945 32.3912C21.4134 32.3606 21.4535 32.3642 21.5147 32.4021C21.576 32.4399 21.5971 32.4742 21.5782 32.5048C21.4646 32.6885 21.327 32.8997 21.1654 33.1384C21.01 33.3668 20.8504 33.6138 20.6863 33.8792C20.5222 34.1445 20.3696 34.4029 20.2284 34.6542C20.0935 34.8952 19.9661 35.1127 19.8462 35.3067ZM12.8021 29.1747C12.6759 29.3788 12.5188 29.5074 12.3308 29.5605C12.1428 29.6136 11.9467 29.577 11.7426 29.4508C11.5384 29.3246 11.4181 29.1656 11.3815 28.9737C11.345 28.7818 11.3898 28.5838 11.516 28.3796C11.6422 28.1755 11.7961 28.052 11.9778 28.0091C12.1595 27.9662 12.3524 28.0079 12.5566 28.1341C12.9853 28.3991 13.0671 28.7459 12.8021 29.1747Z" fill="#F5F0E8"/>
<path d="M11.9121 38.8773C12.2012 38.9945 12.4752 39.0215 12.734 38.9582C12.9973 38.8837 13.2463 38.7646 13.4811 38.6008C13.7093 38.4214 13.942 38.2309 14.1792 38.0293C14.441 37.7989 14.7072 37.5896 14.9778 37.4015C15.2372 37.2089 15.5175 37.0766 15.8187 37.0045C16.1088 36.9279 16.4373 36.9641 16.8042 37.113C17.16 37.2573 17.4576 37.4816 17.6967 37.7858C17.9248 38.0856 18.0611 38.4517 18.1058 38.8842C18.155 39.3056 18.0758 39.7721 17.8683 40.2836C17.7555 40.5616 17.6084 40.8126 17.4268 41.0368C17.2563 41.2655 17.0201 41.4805 16.7183 41.6818C16.6871 41.695 16.6502 41.706 16.6079 41.7147C16.5655 41.7234 16.522 41.7187 16.4776 41.7007L15.163 41.2062C15.1297 41.1927 15.1243 41.1581 15.1468 41.1025C15.1628 41.0313 15.1897 40.9969 15.2275 40.9993C15.6597 41.0193 16.0443 40.981 16.3813 40.8846C16.7071 40.7837 16.9886 40.6325 17.2258 40.4308C17.4519 40.2247 17.6236 39.9771 17.7409 39.688C17.8852 39.3321 17.9068 39.0236 17.8056 38.7624C17.7089 38.4901 17.4859 38.2895 17.1367 38.1608C16.8097 38.0411 16.5145 38.0185 16.2512 38.093C15.9879 38.1674 15.7422 38.2944 15.514 38.4737C15.2792 38.6375 15.0511 38.8169 14.8295 39.0119C14.5833 39.2357 14.336 39.4462 14.0877 39.6433C13.8328 39.8248 13.5547 39.9516 13.2535 40.0236C12.9569 40.0846 12.6195 40.0384 12.2414 39.885C11.8077 39.709 11.5026 39.4557 11.3259 39.1251C11.1382 38.7899 11.053 38.4251 11.0706 38.0308C11.077 37.632 11.1569 37.2435 11.3103 36.8654C11.396 36.6541 11.4961 36.4552 11.6107 36.2686C11.7252 36.082 11.8732 35.9089 12.0544 35.7493C12.1284 35.6628 12.2099 35.6375 12.2988 35.6736C12.4767 35.7458 12.6635 35.8281 12.8592 35.9204C13.0437 36.0082 13.2583 36.1017 13.5029 36.201C13.5251 36.21 13.5227 36.2479 13.4957 36.3146C13.4686 36.3813 13.4439 36.4101 13.4217 36.4011C13.1659 36.2974 12.9019 36.2938 12.6296 36.3906C12.3572 36.4873 12.1113 36.6465 11.8919 36.8683C11.6613 37.0855 11.4918 37.3276 11.3836 37.5945C11.2753 37.8613 11.2574 38.1131 11.3297 38.3496C11.4066 38.5751 11.6007 38.7509 11.9121 38.8773Z" fill="#F5F0E8"/>
<path d="M15.5835 47.6702C15.5784 47.6936 15.5407 47.6977 15.4704 47.6824C15.4 47.667 15.3674 47.6476 15.3725 47.6242C15.4721 47.1669 15.461 46.8513 15.3392 46.6774C15.2082 46.4892 14.8965 46.3415 14.4041 46.2343L11.1152 45.518C10.7048 45.4286 10.3969 45.4046 10.1914 45.4458C9.97419 45.4845 9.84133 45.6152 9.79281 45.838C9.77238 45.9318 9.77157 46.0482 9.79038 46.1874C9.79747 46.3241 9.8229 46.4893 9.86667 46.683C9.86818 46.7325 9.8358 46.7684 9.76951 46.7908C9.69405 46.7989 9.64843 46.7829 9.63264 46.7426L9.07532 44.2264C9.07125 44.1886 9.0705 44.1639 9.07305 44.1522C9.07816 44.1287 9.10213 44.1032 9.14496 44.0757C9.17608 44.0457 9.20922 44.0345 9.24439 44.0421C9.33819 44.0625 9.56556 44.1182 9.92649 44.2091C10.2874 44.3 10.7493 44.4067 11.3121 44.5293L14.6186 45.2494C15.111 45.3566 15.4534 45.3636 15.6456 45.2704C15.8287 45.1629 15.9713 44.8746 16.0734 44.4056C16.0811 44.3705 16.1201 44.3605 16.1905 44.3759C16.2608 44.3912 16.2922 44.4164 16.2845 44.4516C16.2385 44.6627 16.179 44.9076 16.106 45.1865C16.0356 45.4536 15.9672 45.7396 15.9008 46.0444C15.8344 46.3493 15.7764 46.6437 15.7268 46.9276C15.6798 47.1999 15.6321 47.4474 15.5835 47.6702ZM6.90037 44.2317C6.8493 44.4662 6.74396 44.6397 6.58434 44.7523C6.42472 44.865 6.22766 44.8957 5.99315 44.8447C5.75865 44.7936 5.59223 44.6836 5.4939 44.5149C5.39556 44.3461 5.37193 44.1444 5.423 43.9099C5.47407 43.6754 5.57814 43.5077 5.73521 43.4068C5.89227 43.3059 6.08806 43.281 6.32256 43.3321C6.81502 43.4394 7.00762 43.7392 6.90037 44.2317Z" fill="#F5F0E8"/>
<path d="M4.14103 49.2043C4.14024 49.1684 4.17584 49.1496 4.24782 49.148C4.3198 49.1464 4.35619 49.1636 4.35698 49.1996C4.36538 49.5835 4.47498 49.9292 4.68576 50.2367C4.89628 50.5321 5.27384 50.7819 5.81844 50.986L15.4941 54.6091C15.5423 54.62 15.5678 54.6855 15.5704 54.8055C15.5728 54.9134 15.5502 54.9799 15.5027 55.005L5.86521 59.6991C5.41378 59.913 5.09459 60.1361 4.90763 60.3682C4.70841 60.5886 4.61287 60.8848 4.62101 61.2567C4.6218 61.2927 4.5862 61.3115 4.51422 61.3131C4.44224 61.3146 4.40585 61.2974 4.40506 61.2615C4.40139 61.0935 4.40384 60.9314 4.41242 60.7752C4.421 60.6189 4.42945 60.4567 4.43777 60.2885C4.43409 60.1205 4.43028 59.9466 4.42634 59.7666C4.41846 59.4067 4.4115 59.0888 4.40546 58.8129C4.38742 58.5372 4.37003 58.2915 4.35331 58.0758C4.33658 57.8601 4.32625 57.6623 4.32231 57.4824C4.32152 57.4464 4.35712 57.4276 4.4291 57.426C4.50108 57.4244 4.53747 57.4416 4.53826 57.4776C4.5485 57.9455 4.6457 58.2735 4.82986 58.4615C5.01376 58.6375 5.32543 58.6187 5.76485 58.405L14.1917 54.3315L15.0317 54.8713L5.71953 51.4023C5.27169 51.2321 4.94177 51.2393 4.72977 51.424C4.51776 51.6087 4.41898 52.0309 4.43343 52.6908C4.43422 52.7268 4.39862 52.7456 4.32664 52.7471C4.25466 52.7487 4.21827 52.7315 4.21748 52.6955C4.21091 52.3956 4.21674 52.1134 4.23495 51.8489C4.24117 51.5847 4.23955 51.2367 4.23009 50.8048C4.22247 50.4569 4.21043 50.1811 4.19397 49.9774C4.16524 49.7619 4.1476 49.5043 4.14103 49.2043Z" fill="#F5F0E8"/>
<path d="M12.3356 67.1842L12.1647 67.3074C11.5241 67.0275 11.026 66.7883 10.6704 66.5898C10.3032 66.3945 10.0398 66.2135 9.88028 66.0467C9.70593 65.8716 9.59257 65.6917 9.5402 65.5069C9.47148 65.2645 9.47366 65.0082 9.54675 64.738C9.61657 64.4563 9.74961 64.2876 9.94588 64.232C10.096 64.1894 10.2377 64.2054 10.371 64.2798C10.5011 64.3428 10.5924 64.4666 10.6447 64.6513C10.6873 64.8014 10.6771 64.9415 10.6142 65.0715C10.5513 65.2016 10.4958 65.3359 10.4477 65.4742C10.3996 65.6126 10.4017 65.7741 10.4541 65.9588C10.4835 66.0627 10.5435 66.1642 10.6339 66.2633C10.7244 66.3624 10.9013 66.4806 11.1648 66.618C11.4167 66.7586 11.807 66.9474 12.3356 67.1842ZM17.5097 67.551C17.5196 67.5856 17.4898 67.6128 17.4206 67.6324C17.3513 67.652 17.3118 67.6445 17.3019 67.6099C17.1743 67.1596 17.0174 66.8923 16.8314 66.8078C16.6305 66.7151 16.2876 66.7375 15.8027 66.8749L12.3738 67.8469C11.9928 67.9549 11.7288 68.0796 11.5818 68.2211C11.42 68.3542 11.3718 68.5363 11.4372 68.7672C11.47 68.8826 11.5323 69.0146 11.6243 69.1632C11.713 69.3002 11.8256 69.4553 11.9621 69.6287C11.9867 69.6716 11.9751 69.7186 11.9272 69.7696C11.876 69.809 11.8323 69.8089 11.7961 69.7693L10.2742 68.0304C10.2529 67.9991 10.2373 67.9661 10.2275 67.9314C10.2045 67.8506 10.2963 67.7123 10.5028 67.5166C10.7092 67.3209 11.0433 67.1576 11.5051 67.0267L15.5229 65.8878C15.8461 65.7962 16.0887 65.6838 16.2505 65.5506C16.4007 65.4207 16.4704 65.2263 16.4594 64.9675C16.4484 64.7087 16.3758 64.3426 16.2416 63.8693C16.2285 63.8231 16.2566 63.7902 16.3259 63.7705C16.3951 63.7509 16.4363 63.7642 16.4494 63.8104C16.528 64.0874 16.6155 64.4181 16.7119 64.8024C16.8051 65.1751 16.9106 65.5693 17.0284 65.9849C17.1135 66.2851 17.2011 66.5721 17.2912 66.8459C17.3812 67.1197 17.4541 67.3547 17.5097 67.551Z" fill="#F5F0E8"/>
<path d="M21.0762 74.0821C21.3608 74.5967 21.4245 75.0962 21.2674 75.5808C21.094 76.0607 20.6922 76.4748 20.0622 76.8233L17.6522 78.1561C17.2426 78.3826 16.9689 78.582 16.831 78.7542C16.6769 78.9217 16.6491 79.0948 16.7479 79.2733C16.8292 79.4203 16.9804 79.5698 17.2016 79.7217C17.2353 79.7579 17.2294 79.8092 17.1838 79.8755C17.1324 79.9314 17.0898 79.9412 17.0561 79.905L15.3016 78.5921C15.2795 78.577 15.2626 78.5589 15.251 78.5379C15.2336 78.5064 15.2319 78.4661 15.246 78.4172C15.2437 78.3636 15.2584 78.3281 15.2899 78.3107L19.0545 76.2287C19.6741 75.886 20.0751 75.5202 20.2577 75.1313C20.4298 74.7481 20.3939 74.336 20.15 73.895C19.9293 73.496 19.5878 73.1637 19.1256 72.8982C18.6576 72.6223 18.1346 72.4453 17.5566 72.3672L17.6863 72.1926C18.5731 72.3331 19.2941 72.5582 19.8495 72.8682C20.3885 73.1734 20.7974 73.5781 21.0762 74.0821ZM12.9814 74.1365L17.3918 71.6973C17.7489 71.4999 17.9829 71.3156 18.094 71.1444C18.205 70.9733 18.2054 70.788 18.095 70.5885C18.037 70.4835 17.9573 70.3767 17.8561 70.2681C17.7386 70.1548 17.5909 70.024 17.4128 69.8756C17.3628 69.8347 17.3635 69.7863 17.4148 69.7305C17.4557 69.6805 17.4983 69.6706 17.5425 69.701L19.4281 71.0648C19.4502 71.08 19.4671 71.0981 19.4787 71.1191C19.5252 71.2031 19.4672 71.3586 19.3047 71.5856C19.1318 71.8184 18.8353 72.0509 18.4152 72.2832L15.3437 73.9819C14.9341 74.2084 14.6604 74.4078 14.5225 74.58C14.3684 74.7476 14.3407 74.9206 14.4394 75.0991C14.5207 75.2461 14.6719 75.3956 14.8931 75.5475C14.9268 75.5837 14.918 75.6298 14.8666 75.6856C14.8152 75.7415 14.7726 75.7513 14.7389 75.7151L12.9844 74.4022C12.9623 74.387 12.9483 74.3742 12.9425 74.3637C12.9251 74.3322 12.9234 74.292 12.9375 74.243C12.9352 74.1894 12.9499 74.1539 12.9814 74.1365Z" fill="#F5F0E8"/>
<path d="M26.4857 80.8637C26.9716 81.3787 27.2691 81.9476 27.3784 82.5704C27.4877 83.1933 27.4316 83.8071 27.2104 84.4119C26.9803 85.0249 26.621 85.562 26.1322 86.0232C25.6784 86.4514 25.2074 86.7391 24.7192 86.8863C24.2311 87.0334 23.7505 87.0661 23.2775 86.9845C22.7958 86.9111 22.3502 86.7623 21.9407 86.5382C21.5231 86.3054 21.166 86.0319 20.8695 85.7177C20.3671 85.1853 20.0698 84.6079 19.9775 83.9855C19.877 83.3544 19.9371 82.745 20.1579 82.1572C20.3787 81.5694 20.716 81.0613 21.1698 80.6331C21.7284 80.106 22.3279 79.7796 22.9682 79.6539C23.6085 79.5281 24.2354 79.5718 24.8489 79.7848C25.4624 79.9979 26.008 80.3575 26.4857 80.8637ZM25.8787 80.7188C25.4422 80.2562 24.9348 80.042 24.3566 80.0762C23.7696 80.1185 23.1096 80.4856 22.3764 81.1774C21.8266 81.6963 21.4287 82.245 21.1827 82.8236C20.9197 83.4017 20.8187 83.959 20.8795 84.4956C20.9316 85.0404 21.1471 85.5135 21.5259 85.915C21.9624 86.3776 22.4743 86.5792 23.0618 86.5198C23.6493 86.4605 24.2615 86.1302 24.8987 85.529C25.4311 85.0266 25.8375 84.4782 26.1179 83.8836C26.3983 83.289 26.5253 82.7155 26.4989 82.1629C26.4642 81.6016 26.2575 81.1203 25.8787 80.7188Z" fill="#F5F0E8"/>
<path d="M30.3614 90.934L25.8674 92.9917C25.2719 93.2826 24.9379 93.5754 24.8652 93.8702C24.7925 94.1649 24.9844 94.4565 25.4409 94.7449C25.4612 94.7578 25.4521 94.7946 25.4137 94.8555C25.3752 94.9164 25.3458 94.9404 25.3255 94.9276C25.0516 94.7545 24.7943 94.5777 24.5535 94.3971C24.3063 94.2267 23.9798 94.0133 23.574 93.757C23.3204 93.5967 23.1143 93.4736 22.9557 93.3876C22.7806 93.3053 22.5814 93.1937 22.3583 93.0526C22.338 93.0398 22.3471 93.003 22.3855 92.9421C22.424 92.8812 22.4533 92.8572 22.4736 92.87C22.7171 93.0239 23.0041 93.12 23.3346 93.1586C23.6652 93.1971 24.0176 93.1785 24.392 93.1027C24.7562 93.0205 25.1391 92.8863 25.5407 92.7L30.2469 90.5423L30.3614 90.934ZM30.6826 90.7963L30.8833 96.5443C30.8917 97.16 30.9682 97.6342 31.1129 97.9669C31.2575 98.2996 31.4972 98.5717 31.832 98.7832C31.8624 98.8025 31.8584 98.8425 31.82 98.9034C31.7815 98.9642 31.7471 98.9851 31.7166 98.9658C31.5442 98.8569 31.368 98.7313 31.188 98.5893C31.0017 98.4573 30.8274 98.3401 30.6651 98.2375C30.3912 98.0644 30.1274 97.8978 29.8738 97.7375C29.6036 97.581 29.3537 97.4373 29.1242 97.3065C28.8844 97.1692 28.6783 97.046 28.5059 96.9371C28.4856 96.9243 28.4947 96.8874 28.5331 96.8265C28.5716 96.7657 28.601 96.7417 28.6212 96.7545C29.0169 97.0045 29.3007 97.1057 29.4726 97.0582C29.6344 97.0043 29.7079 96.8094 29.693 96.4735L29.5043 91.01L30.6826 90.7963ZM30.5303 91.5092L29.4546 91.0212L31.743 87.3996C31.9289 87.1054 32.0395 86.8629 32.0748 86.6723C32.11 86.4817 32.0524 86.3033 31.9018 86.1372C31.7513 85.9711 31.4883 85.7695 31.113 85.5323C31.0826 85.5131 31.0866 85.473 31.125 85.4122C31.1635 85.3513 31.1979 85.3305 31.2284 85.3497C31.4718 85.5036 31.7425 85.6817 32.0405 85.8841C32.3282 86.0802 32.6497 86.2904 33.0047 86.5147C33.3395 86.7262 33.6673 86.9263 33.9882 87.1149C34.3091 87.3034 34.5862 87.4714 34.8195 87.6188C34.85 87.6381 34.846 87.6781 34.8075 87.739C34.7691 87.7999 34.7346 87.8207 34.7042 87.8014C34.339 87.5707 34.044 87.4198 33.8192 87.3487C33.5944 87.2776 33.4035 87.299 33.2464 87.4127C33.0894 87.5264 32.918 87.7303 32.7321 88.0245L30.5303 91.5092Z" fill="#F5F0E8"/>
<path d="M108 54.5C108 24.9528 84.0472 1 54.5 1C24.9528 1 1 24.9528 1 54.5C1 84.0472 24.9528 108 54.5 108V109C24.4005 109 0 84.5995 0 54.5C0 24.4005 24.4005 0 54.5 0C84.5995 0 109 24.4005 109 54.5C109 84.5995 84.5995 109 54.5 109V108C84.0472 108 108 84.0472 108 54.5Z" fill="#C9A96E"/>
</svg>
